<?xml version="1.0" encoding="utf-8"?>
<svg xmlns="http://www.w3.org/2000/svg" xmlns:xlink="http://www.w3.org/1999/xlink" version="1.1"><style type="text/css">.land { fill: #f7f7f7;fill-opacity: 1;stroke: #cccccc;stroke-opacity: 1;stroke-width: 0.5;}</style><path class="land" d="M275.90612716666664,505.5098093824509L271.4858172777778,505.44598844488706L275.32787130555556,506.9693947535285L275.90612716666664,505.5333169258934L275.90612716666664,505.5098093824509z"/><path class="land" d="M312.60824783333334,481.01058370790076L311.12753733333335,481.9850683235866L312.0338888888889,483.18118628594823L312.6339663611111,481.02439156216155L312.60824783333334,481.01058370790076z"/><path class="land" d="M800.55125,620.9403950924171L799.4492895000001,618.111186510426L800.545796,620.9380178371764L800.55125,620.9403950924171z"/><path class="land" d="M587.3843589444444,426.7371380399213L585.4321608055556,427.1300013076442L586.37981575,428.7606342955237L587.39526975,426.76379722753825L587.3843589444444,426.7371380399213z"/><path class="land" d="M256.7893830277778,496.1324484996196L254.69924413888893,497.4266011683137L256.77535525,496.1476360368804L256.7893830277778,496.1324484996196z"/><path class="land" d="M351.58520833333336,657.4135842998992L351.38725955555554,656.5806361526844L351.5781944444444,657.401886244525L351.58520833333336,657.4135842998992z"/><path class="land" d="M563.4194605,645.0839771162642L564.9009481388889,644.9186561131239L563.4303713055556,645.0761812892232L563.4194605,645.0839771162642z"/><path class="land" d="M361.54415061111115,655.8531032538059L362.36945247222224,656.3279755588096L361.55739844444446,655.8585628426118L361.54415061111115,655.8531032538059z"/><path class="land" d="M258.7641827222222,493.2673427962293L257.9123851944445,493.81721945532547L258.7626228333333,493.29694011079414L258.7641827222222,493.2673427962293z"/><path class="land" d="M595.1736725277777,652.2369847749347L594.9749466111111,651.3680218073107L595.1697756111112,652.2369847749347L595.1736725277777,652.2369847749347z"/><path class="land" d="M190.53462869444445,427.1383162472546L188.6089262222222,427.94631363107726L190.49566233333337,427.2114701410798L190.53462869444445,427.1383162472546z"/><path class="land" d="M190.89233702777778,427.60331183374655L188.17406511111108,428.98463056659284L190.88142622222227,427.61326500068174L190.89233702777778,427.60331183374655z"/><path class="land" d="M331.4678151111111,626.4683931293565L330.5552324166667,626.544845369433L331.48807963888885,626.4691819680968L331.4678151111111,626.4683931293565z"/><path class="land" d="M583.6763515555556,422.9942080178785L583.1978472222222,421.57148685565653L583.6545299444444,422.9720911985679L583.6763515555556,422.9942080178785z"/><path class="land" d="M598.5060496944444,650.5076486989359L598.5099466111111,650.5092085892011L598.2519898055556,649.8989967229077L598.5060496944444,650.5076486989359z"/><path class="land" d="M672.7207879722222,506.7368109093055L673.6544123333333,506.33896450442796L672.71143425,506.71899314480856L672.7207879722222,506.7368109093055z"/><path class="land" d="M594.3413567777777,656.983831268046L594.3818830277778,657.6351099922665L594.3452536944444,656.9791508606008L594.3413567777777,656.983831268046z"/><path class="land" d="M230.18024566666668,476.8785355379496L230.17868858333327,476.88109546252883L230.15998394444446,477.99271868244733L230.18024566666668,476.8785355379496z"/><path class="land" d="M604.0813114166667,427.00191880711645L603.8373851944444,428.4224619641975L604.0859882777778,427.0085742752981L604.0813114166667,427.00191880711645z"/><path class="land" d="M801.9890972222223,610.2960020210061L801.9859802499999,610.3040435735682L802.1379487777778,611.0610541146333L801.9890972222223,610.2960020210061z"/><path class="land" d="M337.6104246944444,740.2282116071518L337.7717441388889,741.1282586906724L337.6252324166667,740.220986117079L337.6104246944444,740.2282116071518z"/><path class="land" d="M851.3131009166667,395.36282176909526L851.3162178888889,395.358843211688L851.0668376666666,393.61289027161206L851.3131009166667,395.36282176909526z"/><path class="land" d="M864.6028632777777,431.83952400696376L865.9183574166667,431.7309147787373L864.5888355,431.8038688055976L864.6028632777777,431.83952400696376z"/><path class="land" d="M645.6019765555554,508.75420361504007L645.6573077222222,509.7924646593257L645.6128845555555,508.7696530108419L645.6019765555554,508.75420361504007z"/></svg>