<?xml version="1.0" encoding="utf-8"?>
<svg xmlns="http://www.w3.org/2000/svg" xmlns:xlink="http://www.w3.org/1999/xlink" version="1.1"><style type="text/css">.land { fill: #f7f7f7;fill-opacity: 1;stroke: #cccccc;stroke-opacity: 1;stroke-width: 0.5;}</style><path class="land" d="M522.8316117222222,254.99189324252384L522.80511325,254.98576112327765L522.3390796111112,254.93209234376295L522.8620043055555,255.40691865932405L522.8316117222222,254.99189324252384z"/><path class="land" d="M524.2375064722222,255.33806703375575L524.2304925833333,255.31664073862416L523.8416117222222,255.1681207470879L524.3247901111112,255.76301062373463L524.2375064722222,255.33806703375575z"/><path class="land" d="M522.2143894999999,254.60052971342046L522.2003617222222,254.59284705557403L521.9930620277778,254.8983441018236L522.3164780555555,255.3457190798835L522.2143894999999,254.60052971342046z"/><path class="land" d="M523.7574450555555,255.1451473390103L523.7434172777778,255.102247989157L523.8899289999999,255.78132999635153L524.4619509166666,255.9232621498669L523.7574450555555,255.1451473390103z"/><path class="land" d="M523.5018252777778,255.19109684244333L523.489357388889,255.17577975967288L523.5649502777778,255.60873349866475L523.5018252777778,255.19109684244333z"/><path class="land" d="M524.4572740555556,255.50938347249303L524.422204611111,255.5139683277431L524.5165021388889,255.78743605496265L524.4572740555556,255.50938347249303z"/><path class="land" d="M521.8309626388889,254.32531094631847L521.8029070833334,254.30992815773595L521.7990101666667,254.59437918754716L521.8309626388889,254.32531094631847z"/><path class="land" d="M245.35437344444443,318.4076536372804L244.9802975,319.0247820940573L244.55479011111112,318.0065045025367L243.92276016666665,318.59341803512564L243.55258394444448,317.9717345431368L242.97978208333333,318.15449594511523L242.73039905555555,318.37966544006787L242.88002774999998,318.8036156277625L242.731179,318.5441950585805L242.26748238888888,318.56768827646795L242.12019072222225,317.9694893104885L241.33073824999997,318.26431020778233L241.08057527777777,318.0749061108787L240.93406355555555,318.3438326997166L242.8621030555555,318.9399161379026L244.20799258333335,319.71369371373953L245.06290708333333,319.1430970726806L244.40749844444446,319.71035591619443L244.77611758333333,319.86723900835796L245.5094589444444,318.9399161379026L245.54764536111108,318.72202253705814L245.21409566666665,318.7522054210132L245.35437344444443,318.43116118072294L245.35437344444443,318.4076536372804z"/><path class="land" d="M282.0564941111111,293.90842796273023L281.1252067777778,294.0866337612442L280.5757836111111,294.88291257841615L280.77762930555554,295.6225849082919L281.4821351666667,296.07903054077775L282.34562344444447,295.9199507148711L282.6441036944444,295.5117418460278L282.00661694444443,294.7254044928312L282.26145677777777,294.6353456541782L282.56772805555556,295.2100402290638L282.6176052222222,294.4488479221226L282.0822126388889,293.9222358169911L282.0564941111111,293.90842796273023z"/><path class="land" d="M769.9994962777778,433.8382393472466L770.0119641666666,433.25855657316373L769.6316570833334,433.1498742280969L769.5537243611111,432.8943714430355L769.7337484444445,431.4503624207753L768.8975357777778,431.0090307652556L769.1928990555556,431.3000974795236L769.0705459722222,431.4932901607118L769.4243573888888,433.40212590689106L769.9940422777777,433.8358620920059L769.9994962777778,433.8382393472466z"/><path class="land" d="M227.63105616666667,312.4773985926107L227.4814246666667,312.2564938321891L228.30438949999998,312.0249988079014L226.99279227777777,311.96622045756556L226.3576453611111,312.33475596174117L225.92106444444445,313.08298943258137L226.27191880555557,313.4423757253063L226.19866294444444,313.6060336759414L226.38570091666668,313.9021388171553L227.61858547222226,312.4923469708781L227.63105616666667,312.4773985926107z"/><path class="land" d="M556.8326052222222,239.63498229475084L556.558283611111,239.4882688479336L556.61127775,240.46466445078198L556.3385160277777,239.50494774860343L554.8804070833334,240.02784556247371L555.8280620277778,241.65847855035324L556.4234626388889,241.76227785345182L556.7998756111111,240.45139403687656L557.2511015277778,240.73486710214075L556.8435160277778,239.66164148236777L556.8326052222222,239.63498229475084z"/><path class="land" d="M268.27887930555556,319.1810314597245L267.5977521388889,319.2223085556755L266.9166249722222,320.216226979619L267.98507591666663,320.1740200801888L268.27731941666667,319.2033456477515L268.27887930555556,319.1810314597245z"/><path class="land" d="M776.453054,286.1879074427843L774.5990475000001,287.13388504877133L774.4805913333333,287.5851338971845L775.7594589444444,287.26236020790986L776.7312697222221,286.5254332728557L776.7258157222223,285.75180877626974L776.453054,286.1879074427843z"/><path class="land" d="M230.39998238888884,320.8461410587537L230.1615101666667,320.7475560544387L229.67755183333335,321.26658896322374L229.21151819444444,322.2945015933286L229.46479813888888,322.70239001583883L230.39063147222225,320.86939929239946L230.39998238888884,320.8461410587537z"/><path class="land" d="M528.3499823888889,459.12487804675226L529.5571512222222,458.8465438642247L530.454929,458.31244567007855L529.3054311666666,458.5869092160431L528.3593333055555,459.1155206597393L528.3499823888889,459.12487804675226z"/><path class="land" d="M226.23762930555554,309.03029275444914L224.41245830555553,309.8791796325938L224.1474904166667,310.3244454231433L224.98993702777776,310.14784064045955L224.74367097222216,310.1094832861505L226.2236015277778,309.04548029170985L226.23762930555554,309.03029275444914z"/><path class="land" d="M567.1547126388889,469.62665288448267L567.5506073888889,469.64302914846564L567.3269428888889,469.1345847006859L566.5530752777778,469.04023261801296L566.757258,469.1977472802873L566.5904845555556,469.4270094840536L567.1562697222222,469.62899154479936L567.1547126388889,469.62665288448267z"/><path class="land" d="M321.0334546111111,470.31142855472876L321.1176212777778,470.42219119104425L321.37323825,469.6570667980444L320.83550583333334,469.4784804075139L320.6921110833333,469.6055965762589L321.0264407222222,470.29973049935455L321.0334546111111,470.31142855472876z"/><path class="land" d="M532.8677067777777,457.9818213710937L533.8215956666667,458.1486972061915L534.3491944166667,457.81650036795344L533.3173587777777,458.0460936296616L533.3048123333333,457.88943841943876L532.8786175833334,457.9740255440527L532.8677067777777,457.9818213710937z"/><path class="land" d="M315.0381395,543.7007959571497L315.2243947222222,543.902805324018L315.6522419444444,543.6955266691275L316.04190274999996,543.8184732270428L316.83057527777777,543.2953751828061L315.05528425,543.6981628836626L315.0381395,543.7007959571497z"/><path class="land" d="M239.00446416666665,316.75134361064886L238.47063147222218,316.69381340349605L238.94289905555559,317.6563087280357L239.39958177777774,317.046646519268L239.01771480555556,316.76938700711L239.00446416666665,316.75134361064886z"/><path class="land" d="M499.44730616666664,268.47096017271656L498.6937002777778,268.72064616739806L498.3476826944445,269.5004272013406L499.02569288888884,269.69487659682886L499.4519802222222,268.49950937426775L499.44730616666664,268.47096017271656z"/><path class="land" d="M644.1641012777778,317.0838110862062L644.603619611111,317.3786858171794L644.9177015555555,316.9812954687702L644.8257354444444,316.73442355119863L644.5451798888888,316.96101384334116L643.1922848888888,316.8990623146699L643.5936196111111,317.26617868645866L644.1602015555555,317.0838110862062L644.1641012777778,317.0838110862062z"/><path class="land" d="M330.9923968888889,468.7509475086355L331.2636015277778,469.16421486200454L331.81769875,469.22581981363913L331.7366490555555,468.9716123095268L331.0056447222222,468.7564070974414L330.9923968888889,468.7509475086355z"/><path class="land" d="M239.832883,317.5203486392151L239.10421849999997,318.02669128995507L240.11811541666665,318.2138934248376L240.25839319444444,317.94368770701925L239.8601586111111,317.5225943464185L239.832883,317.5203486392151z"/><path class="land" d="M290.9890715833333,470.72173135418467L290.8456768333333,470.5376354368739L290.47316077777776,470.91909524149645L290.7314907222222,471.109142477258L290.9890715833333,470.72173135418467z"/><path class="land" d="M228.212429,306.1651870510588L227.32322219444447,306.22438183982786L227.36063147222225,306.715063710155L228.06591727777777,306.5437480183993L228.2108691111111,306.1947843656236L228.212429,306.1651870510588z"/><path class="land" d="M564.6219188055555,465.13482902976426L565.023270361111,464.9470065683014L565.126138861111,464.5916261038812L564.6842638611112,464.531617045775L564.7271271388888,464.2869079043488L564.4231928888888,464.2658660621403L564.9203990555555,464.77243128311954L564.6180218888888,465.13482902976426L564.6219188055555,465.13482902976426z"/><path class="land" d="M555.8506607777778,469.960058398831L556.0727681944445,469.8426797763384L556.1187484444445,469.014499536399L555.9465181944445,469.0979339520151L555.8530006111112,469.94406836133146L555.8506607777778,469.960058398831z"/><path class="land" d="M159.98287497222222,240.0361605020841L159.25888733333332,240.22230010410266L159.98988886111113,239.59664836396473L158.1935561666666,240.28043456927998L158.05717249999998,240.84415788590675L159.94390861111114,240.10931439590934L159.98287497222222,240.0361605020841z"/><path class="land" d="M233.98797652777776,431.13310469162L234.69014536111115,431.3867622422039L234.31996633333333,430.8992543308095L233.98797652777776,431.13310469162z"/><path class="land" d="M314.5354765277778,543.8123262922416L315.00540708333335,544.236814706878L315.3038873333333,543.9968226731407L314.81057527777773,543.6928936354012L314.55106138888885,543.8070553187532L314.5354765277778,543.8123262922416z"/><path class="land" d="M160.34058330555555,240.50115608857607L157.62231138888885,241.88247482142233L158.72816880555555,241.63540335696626L160.32967250000004,240.51110925551126L160.34058330555555,240.50115608857607z"/><path class="land" d="M300.91606138888886,439.36623738418604L300.20765861111107,439.1841448018023L300.0034786944444,439.44268962426247L300.81786694444446,439.5609069533338L300.93632591666665,439.36702622292626L300.91606138888886,439.36623738418604z"/><path class="land" d="M320.6266490555555,469.5190309565501L320.74822219444445,469.4223323805172L320.4014246666667,469.260130296078L320.01254380555554,469.62431141792376L320.61495830555555,469.5237109699396L320.6266490555555,469.5190309565501z"/><path class="land" d="M299.6465475,437.44676470960087L299.62394875,437.868363800645L299.8250145,437.4333407911224L299.65823825,437.4554523503169L299.6465475,437.44676470960087z"/><path class="land" d="M335.1835854722222,472.36888264708665L335.2139780555555,473.23768478830635L335.1929363888889,472.3751286437917L335.1835854722222,472.36888264708665z"/><path class="land" d="M553.1245978333334,235.89205227270804L553.4597046111111,235.8341973846153L553.1284919444445,235.62986963426553L553.172915111111,234.45046575398766L552.6460935,234.46933111048605L552.6351826944444,235.40483772709828L553.1027762222221,235.8699354533974L553.1245978333334,235.89205227270804z"/><path class="land" d="M567.9542959722222,463.4054929537654L567.9301373333333,463.01817064039284L568.1444509166666,462.9004906166408L567.7002360833333,462.7968409777372L567.7633610833333,463.11636566645933L567.6059385555556,463.1046748577816L567.9542959722222,463.4054929537654z"/><path class="land" d="M640.6992345555556,321.9685447001097L640.8122367222222,321.3892550636542L640.6633851666667,321.6498429976564L640.6945576944444,321.2323190739137L640.5309012222222,321.57368429458484L640.2776212777777,321.26216771830116L640.1272126388889,321.7436245127173L640.6992345555556,321.9685447001097z"/><path class="land" d="M642.16903425,319.63465516413504L643.1026586111111,319.23680875925754L642.1518894999999,319.2479633607355L642.1596805277777,319.6168373996381L642.16903425,319.63465516413504z"/><path class="land" d="M147.13654749999998,245.18410097461907L146.46633394444444,245.58942344127738L147.49581572222223,245.76838326762433L147.70155552777777,245.43934421192085L147.14278425,245.19379656053806L147.13654749999998,245.18410097461907z"/><path class="land" d="M563.7896030555555,469.8816755228754L563.7007623333333,469.7576703706534L563.6049049166667,470.07041804932504L563.8301293055556,470.532954247096L563.9945657222222,470.34965106068165L563.7934999722222,469.8769951154303L563.7896030555555,469.8816755228754z"/><path class="land" d="M233.97005183333332,310.55311555449066L233.31542313888886,310.8302161760007L234.31996633333333,310.782704823897L233.99109350000003,310.56239566973966L233.97005183333332,310.55311555449066z"/><path class="land" d="M517.8953910277778,475.3207187866832L517.7395283888889,475.2589913605455L517.4558530555555,475.627044011572L517.7395283888889,475.6676837577659L517.8992879444444,475.3324405533944L517.8953910277778,475.3207187866832z"/><path class="land" d="M474.7288018333333,444.46725818273717L474.4568200555555,444.62579300850695L474.44824627777774,444.63812479403225L474.4404524444445,444.64933489799483L474.44824627777774,444.6575587843106L474.6999663333333,444.92318561527827L474.96961108333335,444.7215288208418L474.73893269444443,444.4696146419746L474.7288018333333,444.46725818273717z"/><path class="land" d="M158.29876450000003,242.89200655290753L159.3453910277778,242.45440700099078L159.04691077777778,242.16702301985643L159.53710305555555,241.6205681864977L158.29876450000003,242.89200655290753z"/><path class="land" d="M209.4409225,304.57739593227996L208.52599997222222,304.6596881488108L208.71615491666668,305.15517167246946L209.4136468888889,304.8801776402447L209.44793638888885,304.5845504294325L209.4409225,304.57739593227996z"/><path class="land" d="M203.42300583333335,295.9199507148711L203.1549209722222,295.85280105945276L202.7488953611111,296.67078375232927L203.21103208333335,296.5295154626762L203.42300583333335,295.92740745479364L203.42300583333335,295.9199507148711z"/><path class="land" d="M240.6418200555555,317.97846202965843L240.22098672222225,318.39645716604036L240.70728208333333,318.4367586187263L240.65272805555554,317.99528793557204L240.6418200555555,317.97846202965843z"/><path class="land" d="M199.33702838888888,290.2332680078207L199.60823022222223,290.89056293727685L199.62693486111107,289.77893971735836L199.33702838888888,290.2332680078207z"/><path class="land" d="M551.9821110833333,244.01967472784057L551.0991298055555,243.9589400860824L551.8262484444444,244.2992932065667L551.42957375,244.27005093286581L551.9002842499999,244.75033100986334L552.2081154166667,244.6530763774794L551.9774370277778,244.05221289751296L551.9821110833333,244.01967472784057z"/><path class="land" d="M573.5295576944444,239.89976306194598L573.1063873333334,240.68185239346144L573.2856314722221,241.320306219027L573.5342345555556,239.90641853012758L573.5295576944444,239.89976306194598z"/><path class="land" d="M771.2253669444444,423.5772876840036L771.5861950555555,423.95889836946276L771.3991570833333,423.69540911623204L771.4342265277777,423.2018878283976L771.2253669444444,423.5772876840036z"/><path class="land" d="M258.57711108333336,318.40317592204997L257.8648113888889,318.31135293736327L258.4461870277778,318.7387886246359L258.5786709722222,318.42668393556926L258.57711108333336,318.40317592204997z"/><path class="land" d="M771.9228701388888,426.4001009482855L771.6843979166666,427.37900164380983L771.9684604166666,426.68455225644595L771.9906607777777,426.4265374092951L771.9228701388888,426.4001009482855z"/><path class="land" d="M551.7623435,243.41998724208028L552.2587697222222,243.8959874755444L552.9289860833333,243.44120476508442L552.28448825,243.06871512668553L552.3920336111111,243.6320577025836L551.7732543055555,243.4036625876941L551.7623435,243.41998724208028z"/><path class="land" d="M99.20675061111106,254.62203283572376L98.6565475,255.62554431732843L99.38911172222215,255.21559715160132L99.21532158333333,254.64815070700948L99.20675061111106,254.62203283572376z"/><path class="land" d="M194.3805459722222,289.84683278951866L193.99478208333335,290.1744536099694L194.10077036111113,290.85870205831634L194.37041511111107,289.90190252384684L194.3805459722222,289.84683278951866z"/><path class="land" d="M143.0116036944444,216.14077983127956L142.51205769444442,215.91639052862882L141.94393269444444,216.5868061984639L143.0116036944444,216.14077983127956z"/><path class="land" d="M565.4643654166666,470.4104899897721L565.6903669444443,470.32859100829467L565.7199823888889,470.0205010276132L565.5789246666667,470.16479262957216L565.4222820833334,470.0002232914529L565.4542345555556,470.408150877058L565.4643654166666,470.4104899897721z"/><path class="land" d="M234.56779227777776,319.01250301780226L234.4228376388889,318.8483168740152L234.25138733333335,319.56115831648333L234.59740491666665,319.45532285990026L234.57792313888888,319.0314820465454L234.56779227777776,319.01250301780226z"/><path class="land" d="M307.0586709722222,553.1260558619814L307.2199904166667,554.0261029455019L307.0734786944444,553.1188303719084L307.0586709722222,553.1260558619814z"/><path class="land" d="M316.28661172222223,544.1506449657722L316.5211870277778,543.7912460383229L316.0239780555556,543.9019260675611L316.28661172222223,544.1506449657722z"/><path class="land" d="M822.3223274444443,214.28769166587927L822.3112314722222,214.71245068737736L822.8530459722222,215.44386157931055L822.3223274444443,214.28769166587927z"/><path class="land" d="M187.48121633333332,268.49094249025393L187.9152975,268.24953523187116L187.7921672777778,267.5091292351393L187.51472869444444,268.44525968819624L187.48121633333332,268.49094249025393z"/><path class="land" d="M820.9818947222221,207.244001108141L820.5150839444443,206.51073452644158L820.7644641666667,208.25668746651752L820.9818947222221,207.244001108141z"/><path class="land" d="M554.4151533888889,242.0519391087584L554.1112163333333,242.4183041451873L553.8166329999999,241.96147230279735L553.7987083055556,242.6725146964787L554.5219188055555,242.61678456319186L554.4206073888889,242.0798985346279L554.4151533888889,242.0519391087584z"/><path class="land" d="M161.34902622222225,238.3724096799622L160.61490491666666,239.31974294975208L161.33032158333336,239.03070782868406L161.3482462777778,238.39254386239514L161.34902622222225,238.3724096799622z"/><path class="land" d="M314.0250197222222,470.86916980335224L314.3180459722222,470.692867821111L313.75147805555554,470.6304629332251L314.00787497222217,470.86760832825433L314.0250197222222,470.86916980335224z"/><path class="land" d="M564.34136325,469.8816755228754L564.0748354722223,470.0298621769158L564.1590021388889,470.2747704604402L564.4450145,470.0244010358871L564.3437002777778,469.8816755228754L564.34136325,469.8816755228754z"/><path class="land" d="M317.4049370277778,469.38489888449965L317.53820091666665,469.27416673168324L317.3823354722222,469.16577567912515L317.10177991666666,469.3427886804179L317.39402622222224,469.39269773761225L317.4049370277778,469.38489888449965z"/><path class="land" d="M238.40672652777778,315.86532704400554L237.99836108333335,315.9683507540934L238.44802991666668,316.59564021955384L238.39036172222225,315.87891385186447L238.40672652777778,315.86532704400554z"/><path class="land" d="M264.65269875,307.16337458552835L264.97611758333335,307.71657499813114L264.7657009166667,307.2482125083927L265.12574627777775,306.6666364292489L264.65269875,307.16337458552835z"/><path class="land" d="M295.61356138888885,291.233041964272L295.3462564722222,291.5088990316866L295.8044962777778,291.95684222632735L295.6283691111111,291.2508509297134L295.61356138888885,291.233041964272z"/><path class="land" d="M158.45774411111108,241.7787438924662L158.15069288888887,242.3510006215351L158.90974997222222,241.9186837763806L158.45774411111108,241.7787438924662z"/><path class="land" d="M474.81608547222226,441.77710941697046L474.6196965833333,441.78890820460305L474.7888098611111,442.15772945513464L474.95246633333335,441.8714907860163L474.8262163333334,441.7834038171478L474.81608547222226,441.77710941697046z"/><path class="land" d="M307.30026016666665,549.7662974729643L307.80058330555556,549.2446527179269L307.31740491666665,549.4446374359924L307.30026016666665,549.7466317896321L307.30026016666665,549.7662974729643z"/><path class="land" d="M292.9716651111111,472.8918509676492L293.1749304166666,473.16437183397335L293.3502776388888,473.12924077887834L292.9716651111111,472.8918509676492z"/><path class="land" d="M554.2873435,243.30242660973917L553.5360774444445,243.5815098633984L553.6225839444445,243.91063908938008L554.4829524444444,243.73474228422253L554.2881234444444,243.32038888601772L554.2873435,243.30242660973917z"/><path class="land" d="M292.27105616666665,465.0420847132761L292.4853669444444,464.94934367587695L292.30988225,464.83924179654457L292.1167506111111,464.8675114067429L292.26170244444444,465.03273343298383L292.27105616666665,465.0420847132761z"/><path class="land" d="M160.79648608333332,240.37506141947864L159.6524450555556,241.3896427050462L160.77778425000002,240.3999575652608L160.79648608333332,240.37506141947864z"/><path class="land" d="M834.0511095555555,244.73736826179325L835.3666036944444,244.62875903356684L834.0370817777778,244.7017130604271L834.0511095555555,244.73736826179325z"/><path class="land" d="M237.64143269444443,318.6929505660738L237.1582543055556,318.7130755495375L237.6164941111111,319.0281341048805L237.64143269444443,318.71643222098305L237.64143269444443,318.6929505660738z"/><path class="land" d="M610.5784786944445,318.4076536372804L610.6634224999999,318.82149799990503L611.1442638611111,319.15425632813674L610.5940635555555,318.42108624571813L610.5784786944445,318.4076536372804z"/><path class="land" d="M722.6557462777778,393.3441827511168L723.0945043055555,393.18939818088893L722.6152228333334,393.14491681637134L722.6471724999999,393.3305009590697L722.6557462777778,393.3441827511168z"/><path class="land" d="M155.55633394444445,218.9667004611141L155.09497436111107,219.20218919601143L155.20875647222223,219.66477783528774L155.97794441666662,219.34221011196635L155.59296047222225,218.9723087372759L155.55633394444445,218.9667004611141z"/><path class="land" d="M713.8634465833334,186.43731411936312L714.8157783888889,187.5678493269782L713.9211175833334,186.4733870214519L713.8634465833334,186.43731411936312z"/><path class="land" d="M161.1573113888889,239.65164774437807L160.22836108333334,240.252197756313L161.13626972222218,239.66664414374262L161.1573113888889,239.65164774437807z"/><path class="land" d="M615.0502228333334,321.65204786986965L614.6667959722222,322.11506147222286L615.105554,322.6903089141552L615.2536256111111,322.51777790510516L614.9473234722223,322.45192525838837L614.7696672777778,322.08752935889646L615.0611308333333,321.6674972656715L615.0502228333334,321.65204786986965z"/><path class="land" d="M204.18362561111113,295.6810940011695L203.84306202777776,295.6138665057176L203.536008,295.9970205297906L204.17738886111113,295.6873181582682L204.18362561111113,295.6810940011695z"/><path class="land" d="M194.1023274444444,252.50546345353143L194.629929,252.65611507230375L194.693054,252.26758520737036L194.1046672777778,252.49924891177187L194.1023274444444,252.50546345353143z"/><path class="land" d="M623.3063471944445,316.4793581560832L623.1598354722222,317.03425830330696L623.3141410277777,316.49855370676687L623.3063471944445,316.4793581560832z"/><path class="land" d="M334.956804,471.37705984140064L335.07837713888887,472.11289793876915L334.96303794444447,471.3903231299313L334.956804,471.37705984140064z"/><path class="land" d="M567.0884706666667,468.9263871615648L567.27940275,468.66751898724846L567.0385934999999,468.67843518427964L567.0806768333333,468.9146900547348L567.0884706666667,468.9263871615648z"/><path class="land" d="M859.0431555555556,299.9291234090208L858.5428296111111,300.50395143985645L859.0408157222223,299.95107383960215L859.0431555555556,299.9291234090208z"/><path class="land" d="M299.08855616666665,466.7263727940964L299.0262251388889,466.57512926801564L298.65525213888884,466.5502145655365L299.06985152777776,466.7263727940964L299.08855616666665,466.7263727940964z"/><path class="land" d="M198.00984350000002,267.41296786647445L198.58965924999998,267.2377422581873L197.86411172222216,267.04509801427446L197.99659566666668,267.3914307303315L198.00984350000002,267.41296786647445z"/><path class="land" d="M260.2261549166667,325.17696451693655L259.93702838888885,325.0856678649516L259.85597869444445,325.4235075283606L260.21134719444444,325.18891926445303L260.2261549166667,325.17696451693655z"/><path class="land" d="M295.08829966666667,464.49420999611493L294.7929363888889,464.3570474629579L294.50302991666666,464.4840789868488L295.0773888611111,464.4981069706934L295.08829966666667,464.49420999611493z"/><path class="land" d="M268.90934936111114,322.9164891114581L268.67243702777773,323.05033586563695L268.7916731388889,323.5236543105458L268.9101293055556,322.93953250477057L268.90934936111114,322.9164891114581z"/><path class="land" d="M244.96704966666667,317.77310167366056L244.4916651111111,317.83371984579105L244.9358771388889,318.0109901642369L244.95613886111113,317.79443306400407L244.96704966666667,317.77310167366056z"/><path class="land" d="M824.6766570833333,221.53078928893788L823.8264166388889,220.68638028870583L824.6665262222222,221.52525481420653L824.6766570833333,221.53078928893788z"/><path class="land" d="M623.3764860833334,344.2866216256616L623.2042558333333,344.5545801314581L623.4232462777778,345.51770648242365L623.3873968888889,344.29666335877124L623.3764860833334,344.2866216256616z"/><path class="land" d="M282.01752774999994,296.26902289609154L281.65981941666666,296.571657117157L281.72528425,296.9344811363486L282.02142466666663,296.29260551349324L282.01752774999994,296.26902289609154z"/><path class="land" d="M169.6573675833333,269.8437780921771L169.81479011111108,270.4410533944025L169.67918638888887,269.8423594081944L169.6573675833333,269.8437780921771z"/><path class="land" d="M242.77871633333334,318.144408546771L242.3025518333333,318.247504531304L242.77559936111106,318.1713086096273L242.77871633333334,318.144408546771z"/><path class="land" d="M209.32636324999996,304.9325879459388L208.93124844444444,305.3513761210869L209.2055700555555,305.4167388618044L209.3248061666667,304.93496739217153L209.32636324999996,304.9325879459388z"/><path class="land" d="M199.98776016666667,236.80162839927607L200.36105616666663,236.85578777114094L200.3439086111111,236.2421676972822L199.9667185,236.78639334738656L199.98776016666667,236.80162839927607z"/><path class="land" d="M259.4281314722222,325.19652366363556L258.9324823888889,325.3420776822356L259.41332374999996,325.20847739757033L259.4281314722222,325.19652366363556z"/><path class="land" d="M174.95830769444441,265.7374628946993L175.70333980555554,265.2720023718317L174.96064472222218,265.708493202996L174.95830769444441,265.7374628946993z"/><path class="land" d="M228.43921047222221,306.17229265619255L228.26386324999996,306.52010573246L228.66365491666667,306.51774391339484L228.45090122222223,306.18886437848016L228.43921047222221,306.17229265619255z"/><path class="land" d="M719.2984305277778,212.85882018233886L719.2750518333334,213.29585133755302L719.9865715833332,212.73292108532416L719.2984305277778,212.85882018233886z"/><path class="land" d="M566.1844589444445,463.96738434365756L566.51644875,463.86061594066126L566.3021351666666,463.7343658602876L566.1867959722223,463.9658244511385L566.1844589444445,463.96738434365756z"/><path class="land" d="M569.8761015277778,465.03507055119127L570.02261325,464.9781801837442L569.9267558333333,464.8340008686137L569.6804925833333,464.9056990093044L569.8589567777777,465.03429338219837L569.8761015277778,465.03507055119127z"/><path class="land" d="M169.9238953611111,228.03528531324622L170.33459783333328,227.59933959985906L169.79063147222223,227.63140472974263L169.90207374999997,228.01928963935046L169.9238953611111,228.03528531324622z"/><path class="land" d="M183.84178794444446,262.9142469509069L184.34133394444444,262.73041870102395L184.340554,262.37843900705326L183.8480218888889,262.89807476109513L183.84178794444446,262.9142469509069z"/><path class="land" d="M294.46250647222223,282.3785483648012L293.9964728333333,282.39184327075293L294.3635320833333,282.6960283120951L294.47263733333335,282.3878568067907L294.46250647222223,282.3785483648012z"/><path class="land" d="M554.3372206666667,489.6791419026758L554.0761468888888,489.7170417124794L554.3302067777778,489.8923524050578L554.3356607777778,489.6925642915408L554.3372206666667,489.6791419026758z"/><path class="land" d="M811.8996885555556,371.86723932481686L812.0680218888889,371.64882312145346L811.7461629444443,371.69524767243973L811.8996885555556,371.86723932481686z"/><path class="land" d="M139.40802188888892,208.5843571984146L139.33554597222223,208.8975473670374L140.26605616666663,208.57245048463062L139.43452036111114,208.57642186023753L139.40802188888892,208.5843571984146z"/><path class="land" d="M277.9058317777778,302.90190398994105L277.76633394444445,303.4075035592508L277.9206395,302.9175340295791L277.9058317777778,302.90190398994105z"/><path class="land" d="M220.26257591666666,314.40198694261915L219.7162697222222,314.86771639679364L220.27738083333332,314.4156640447241L220.26257591666666,314.40198694261915z"/><path class="land" d="M474.86440274999995,442.26151175912634L474.8838873333333,442.72371813567565L475.0530006111111,442.61525525162256L474.87375647222217,442.2717349658569L474.86440274999995,442.26151175912634z"/><path class="land" d="M230.55584783333333,320.2684149129705L230.44985955555555,320.58352069125385L230.72418116666668,320.61124001625325L230.55974194444445,320.2917326819248L230.55584783333333,320.2684149129705z"/><path class="land" d="M187.9075064722222,263.66828758331826L187.75242097222224,264.3026404075445L187.91062344444444,263.6814639573479L187.9075064722222,263.66828758331826z"/><path class="land" d="M525.3893413333333,463.55979857141864L525.531179,463.57616337783173L525.5989780555556,463.22391145036386L525.39323825,463.5488877649562L525.3893413333333,463.55979857141864z"/><path class="land" d="M225.7871805277778,301.68155784231857L225.61339319444443,301.4940186201659L225.42713516666663,301.7383885218637L225.9212243611111,302.00300279763644L225.80276819444444,301.69606842996586L225.7871805277778,301.68155784231857z"/><path class="land" d="M538.0875971944445,457.9826017952528L537.7914567777777,457.71122221284907L538.0743493611111,457.9771444379178L538.0875971944445,457.9826017952528z"/><path class="land" d="M259.7445336111111,311.8497745622613L259.53723672222225,311.9708305270305L259.70245027777776,312.3313052130202L259.76869505555555,311.85899952711407L259.7445336111111,311.8497745622613z"/><path class="land" d="M645.7165021388889,324.27544371892577L645.83573825,323.89111410016017L645.5123194166666,324.04514255626503L645.7242959722222,324.2492586063015L645.7165021388889,324.27544371892577z"/><path class="land" d="M186.42991294444442,265.91262116863624L186.7961950555556,266.022555549367L187.06116294444448,265.52009850697425L186.42757591666668,265.9010465396419L186.42991294444442,265.91262116863624z"/><path class="land" d="M187.93478208333337,279.6059769787017L187.57863083333334,279.52776127385715L187.5014780555555,279.8552327798699L187.93244505555555,279.6127135720029L187.93478208333337,279.6059769787017z"/><path class="land" d="M277.15924258333337,474.40433820677976L276.98968322222225,474.3381813929555L276.8311468888889,474.5074433388161L277.14209783333337,474.40668049728276L277.15924258333337,474.40433820677976z"/><path class="land" d="M550.218508,226.16658318883094L550.7492265277778,225.8052360042814L550.5808931944443,225.41791426739493L550.2060401111111,226.1378427824737L550.218508,226.16658318883094z"/><path class="land" d="M328.56481138888887,471.3232235649828L328.8180913333333,471.70009035205067L328.57961911111107,471.3271249595868L328.56481138888887,471.3232235649828z"/><path class="land" d="M186.48992097222222,265.4316357499693L185.96855616666664,265.9111730761681L186.4945978333333,265.42873223937215L186.48992097222222,265.4316357499693z"/><path class="land" d="M172.95779227777777,228.88809072967862L173.5220203611111,228.66685942142968L172.99363886111107,228.48258448981235L172.94142466666665,228.86863675351407L172.95779227777777,228.88809072967862z"/><path class="land" d="M157.17108547222222,240.81435726810074L157.1718654166667,240.80939201145657L156.31383394444444,240.7000743985909L157.17108547222222,240.81435726810074z"/><path class="land" d="M514.6409465833333,427.4773248045473L514.7087484444445,427.7018393915945L514.9768333055556,427.68905597220834L514.6487404166667,427.47332895945465L514.6409465833333,427.4773248045473z"/><path class="land" d="M278.2152228333333,475.8357145773512L278.45681202777774,475.8318064060965L278.2206768333333,475.66143230482703L278.207429,475.82399008519883L278.2152228333333,475.8357145773512z"/><path class="land" d="M823.6728910277778,220.4417358022684L824.2012697222222,220.56595514624215L823.5115715833334,219.60887940672634L823.6627601666667,220.4009288555964L823.6728910277778,220.4417358022684z"/><path class="land" d="M608.3044188055555,325.9103852082004L608.0597126388889,326.0944587787899L608.5101586111111,326.0565739265855L608.3044188055555,325.9103852082004z"/><path class="land" d="M858.0947206666666,303.15665788382455L857.8344268333334,303.4314944814015L858.1717920833333,303.35261128002776L858.1188793055554,303.1674660910317L858.0947206666666,303.15665788382455z"/><path class="land" d="M231.36789905555554,315.6580055132677L231.28762930555555,316.0588798122635L231.3788098611111,315.67613803675323L231.36789905555554,315.6580055132677z"/><path class="land" d="M304.1042638611111,557.958683734298L304.0956928888889,558.3120970083618L304.2227228333333,557.7422462097413L304.10972066666665,557.9385013627212L304.1042638611111,557.958683734298z"/><path class="land" d="M226.51117097222223,302.54087473652703L226.19320894444448,302.87063610891147L226.51974194444443,302.5625537539858L226.51117097222223,302.54087473652703z"/><path class="land" d="M245.2078617222222,319.86946533216576L244.87041511111107,320.13069741760853L245.19695091666665,319.89282038530007L245.2078617222222,319.86946533216576z"/><path class="land" d="M715.5912002777777,190.3146210884451L715.6286095555555,189.9261666734675L715.584186388889,190.32123220362462L715.5912002777777,190.3146210884451z"/><path class="land" d="M801.4856234444444,375.40804588304275L801.7513712777777,375.12543601950443L801.4856234444444,375.39185198779035L801.4856234444444,375.40804588304275z"/><path class="land" d="M770.0992506111112,433.48460795308335L770.1023675833333,433.49253910937716L770.2488793055555,433.8287274337636L770.0992506111112,433.48460795308335z"/><path class="land" d="M210.60445091666662,279.4225346823739L209.97631788888884,279.7609573724478L210.59587713888888,279.45222004457094L210.60445091666662,279.4225346823739z"/><path class="land" d="M268.2102975,251.25514233787473L267.74270677777776,251.96552243320818L268.22588516666667,251.27704141286566L268.2102975,251.25514233787473z"/><path class="land" d="M178.31952036111116,242.90510062676972L178.01870027777773,242.83797621238872L177.95947219444437,243.30895908517857L178.31406355555555,242.93292389274504L178.31952036111116,242.90510062676972z"/><path class="land" d="M233.5305138611111,430.5618838935486L233.78613083333332,430.54039540790563L233.6100064722222,430.38199866525895L233.5305138611111,430.5618838935486z"/><path class="land" d="M201.68356138888888,290.61769125903413L201.3453376388889,290.99756882505335L201.68044441666666,290.6381079277327L201.68356138888888,290.61769125903413z"/><path class="land" d="M821.971633,212.67478710480185L821.6153021944444,211.64879995910016L821.9287697222222,212.64764946390525L821.971633,212.67478710480185z"/><path class="land" d="M554.9965262222222,244.36263351041157L554.5905006111111,244.33177590023544L554.9536629444444,244.8783049936237L555.0019802222222,244.39186101232391L554.9965262222222,244.36263351041157z"/><path class="land" d="M554.309165111111,242.9247399790453L553.64440275,243.26649088336262L554.3037083055555,242.95747343576335L554.309165111111,242.9247399790453z"/><path class="land" d="M188.7811256111111,263.0670578902166L188.2332623333333,263.48518894814737L188.7756688055556,263.0993667958373L188.7811256111111,263.0670578902166z"/><path class="land" d="M258.8225971944444,296.6806973702645L258.8046725,296.69308092082645L258.35422652777777,297.05445475547754L258.8225971944444,296.6806973702645z"/><path class="land" d="M602.8039728333333,300.25691953251953L602.9645123333333,299.847399246792L602.7899450555556,300.2398760255346L602.8039728333333,300.25691953251953z"/><path class="land" d="M681.4296672777779,320.13625268543655L681.4288873333334,320.1340289949391L681.1779444166666,319.98288663933846L681.4296672777779,320.13625268543655z"/><path class="land" d="M307.6182221944444,549.1518432028499L307.95177188888886,549.0153540615113L307.6283530555555,549.1393512985295L307.6182221944444,549.1518432028499z"/><path class="land" d="M513.290383,258.4371729961726L512.8898113888888,258.3468368983532L512.9365715833333,258.81159876633296L513.2810320833333,258.47028408817926L513.290383,258.4371729961726z"/><path class="land" d="M172.97961108333334,227.79519985384385L173.03182527777776,227.25159599083102L172.60943486111108,227.58686471027198L172.96090925,227.7845197682292L172.97961108333334,227.79519985384385z"/><path class="land" d="M717.4350759166666,204.98222112896917L717.6587404166667,207.20801052929727L717.4413098611112,204.99032162944678L717.4350759166666,204.98222112896917z"/><path class="land" d="M610.1716731388889,318.7276127137442L610.4124823888889,319.261345742614L610.1927148055555,318.7354363123019L610.1716731388889,318.7276127137442z"/><path class="land" d="M269.06677188888887,295.79060545703123L268.02559936111106,296.9592260436265L269.05352405555556,295.80926745075635L269.06677188888887,295.79060545703123z"/><path class="land" d="M800.0859626388889,376.03358894982136L800.5379685,376.0407713196069L800.0968734444444,376.02101780287137L800.0859626388889,376.03358894982136z"/><path class="land" d="M771.6111308333334,425.453528406983L771.4770898055555,425.708325693091L771.6360694166666,425.80525121861035L771.6134706666667,425.46234493368627L771.6111308333334,425.453528406983z"/><path class="land" d="M238.33502775000005,316.59789933611177L238.39503577777776,317.0027149149376L238.35451233333336,316.61031187795584L238.33502775000005,316.59789933611177z"/><path class="land" d="M511.24934133333335,259.1223002997078L511.08958177777777,259.39654999857964L511.454304,259.50733315464777L511.28207375,259.12979402460354L511.24934133333335,259.1223002997078z"/><path class="land" d="M324.55598672222226,468.737692942836L324.9152521388889,468.75874531903435L324.5746885555555,468.737692942836L324.55598672222226,468.737692942836z"/><path class="land" d="M233.10890338888885,321.2920124323619L233.15877775,321.6741192484643L233.12682527777773,321.3030659172506L233.10890338888885,321.2920124323619z"/><path class="land" d="M304.2305138611111,471.476150977622L304.220383,471.46678609496684L303.97957375,471.16484310553136L304.30922652777775,471.5807057822322L304.2305138611111,471.476150977622z"/><path class="land" d="M145.53348672222225,226.8906571155426L145.32540708333335,227.24980952807746L145.52724997222222,226.9246394014229L145.53348672222225,226.8906571155426z"/><path class="land" d="M536.852375611111,457.5115769552691L536.3169802222222,457.4733627930495L536.8367879444445,457.5115769552691L536.852375611111,457.5115769552691z"/><path class="land" d="M298.2437697222222,466.37873740458184L298.04504380555557,466.22051294124736L298.2289648055555,466.375619973773L298.2437697222222,466.37873740458184z"/><path class="land" d="M565.5251533888888,465.0366305006055L565.7480379444444,464.6742345232675L565.51190275,465.042864688267L565.5251533888888,465.0366305006055z"/><path class="land" d="M226.01318486111109,301.05294943684464L225.75756788888884,300.9607413490173L225.8043252777778,301.4262200911876L226.0069509166667,301.07963334352564L226.01318486111109,301.05294943684464z"/><path class="land" d="M300.11024411111106,439.18966476290996L299.89749041666664,439.3583546400408L300.10946416666667,439.20148788419164L300.11024411111106,439.18966476290996z"/><path class="land" d="M569.5067024444445,463.4397824796248L569.1778296111112,463.3345740342439L569.4895576944444,463.4421223144065L569.5067024444445,463.4397824796248z"/><path class="land" d="M293.3932783888889,441.1988724355585L293.45874041666667,441.4357091417658L293.40262930555554,441.190215090061L293.3932783888889,441.1988724355585z"/><path class="land" d="M564.0070336111111,468.2036141101781L563.8348061666667,468.1778851837942L563.8301293055556,468.5170383749287L564.0148274444444,468.21452936265865L564.0070336111111,468.2036141101781z"/><path class="land" d="M526.7890021388889,460.39787886319425L527.2565956666666,460.02761660132353L526.7913391666666,460.38073065082193L526.7890021388889,460.39787886319425z"/><path class="land" d="M726.2632221944444,392.2045204870172L726.3567425833334,391.8982714738562L726.2624450555555,392.1847970265965L726.2632221944444,392.2045204870172z"/><path class="land" d="M259.3104524444444,311.9258750809903L259.1257543055556,312.06071778829084L259.38137127777776,312.27721288525925L259.30499844444444,311.95469693256615L259.3104524444444,311.9258750809903z"/><path class="land" d="M242.59713516666662,334.22341644514216L242.49504380555553,334.59437015971275L242.59713516666662,334.24642132107766L242.59713516666662,334.22341644514216z"/><path class="land" d="M184.1488391666667,263.29457290181745L184.48316880555558,262.8863151887499L184.15039905555554,263.2872425652181L184.1488391666667,263.29457290181745z"/><path class="land" d="M224.5761175833333,308.5846888291849L224.28776819444445,308.7684203611812L224.58858547222223,308.6022510178793L224.5761175833333,308.5846888291849z"/><path class="land" d="M557.5207462777778,238.23810654954886L556.9627521388888,238.08858400529297L557.2924049166667,238.47809979711522L557.5371110833333,238.26329709163076L557.5207462777778,238.23810654954886z"/><path class="land" d="M307.1397206666667,551.710139067559L307.23323825,552.0178463706009L307.1475145,551.7236266758082L307.1397206666667,551.710139067559z"/><path class="land" d="M194.4421110833333,251.345847026256L194.74448825000002,251.2285491373304L194.61901819444444,250.73664775769248L194.43587713888888,251.32083180443448L194.4421110833333,251.345847026256z"/><path class="land" d="M571.811934861111,231.101249655396L571.4869589444445,231.29856136387238L571.7924502777778,231.52006105186234L571.811934861111,231.101249655396z"/><path class="land" d="M143.53374844444448,212.66122229773458L144.20708177777777,212.1953990197415L143.53218855555556,212.63408255977708L143.53374844444448,212.66122229773458z"/><path class="land" d="M645.3237243611111,323.7402651940108L645.8676907222222,323.2389050009603L645.3182703611111,323.720581757149L645.3237243611111,323.7402651940108z"/><path class="land" d="M563.0889941111111,243.96923382302245L563.0882141666666,243.97411391840868L563.2090101666666,244.477891407413L563.0889941111111,243.96923382302245z"/><path class="land" d="M525.5319589444443,463.1865048536375L525.6519721944444,462.7750190729943L525.5358530555555,463.171697075759L525.5319589444443,463.1865048536375z"/><path class="land" d="M309.8595496666666,472.9660081481862L310.06373238888887,472.771637781823L309.6109465833333,472.98240348143776L309.8447419444444,472.97069292066965L309.8595496666666,472.9660081481862z"/><path class="land" d="M692.455500611111,278.51766449523967L692.8537323888888,278.5610421322582L692.7064407222223,278.30470726477375L692.455500611111,278.51766449523967z"/><path class="land" d="M612.1753055277778,317.46414194680347L612.1620576944445,317.4787564828643L612.0404845555555,317.93583638537507L612.1753055277778,317.46414194680347z"/><path class="land" d="M176.19976602777777,264.7268014222474L175.8163391666667,265.1587318299809L176.19275213888892,264.75882931536256L176.19976602777777,264.7268014222474z"/><path class="land" d="M820.3490876388888,199.4153924275833L821.2936256111111,198.53689434921017L820.3147981388889,199.39447606092506L820.3490876388888,199.4153924275833z"/><path class="land" d="M130.6640422777778,212.54876290531905L131.21579966666664,212.46339477577538L130.67339319444446,212.51578135265984L130.6640422777778,212.54876290531905z"/><path class="land" d="M260.68751449999996,324.98128175074925L260.0149583055555,325.0269572264864L260.6734867222222,324.99324664855874L260.68751449999996,324.98128175074925z"/><path class="land" d="M273.6148888611111,589.4720427787286L273.7567265277778,589.8856715879681L273.6304765277778,589.483377839326L273.6148888611111,589.4720427787286z"/><path class="land" d="M807.6235561666666,368.1384229563209L807.6087484444445,368.30873686156235L807.8137083055556,368.1835428925567L807.6212163333333,368.1190814071148L807.6235561666666,368.1384229563209z"/><path class="land" d="M209.4876826944445,227.5102388898305L208.9670978333333,227.289075459509L209.49859349999997,227.52628016750103L209.4876826944445,227.5102388898305z"/><path class="land" d="M570.2813471944445,464.8566002753759L570.4582543055556,464.64617838004096L570.2712163333333,464.8472490840147L570.2813471944445,464.8566002753759z"/><path class="land" d="M142.12551386111107,221.2762239003388L141.94549258333333,221.99653920997616L142.1449984444444,221.30206632476123L142.12551386111107,221.2762239003388z"/><path class="land" d="M326.32270677777774,468.06639918771776L326.0857916388889,468.1973776344486L326.3382916388889,468.06639918771776L326.32270677777774,468.06639918771776z"/><path class="land" d="M303.62420244444445,470.83172267312864L303.61796849999996,470.818461528906L303.4161256111111,470.52905372811495L303.62420244444445,470.83172267312864z"/><path class="land" d="M275.34108547222223,286.8038836421282L275.32082375,286.8181882681513L275.04338516666667,287.33240298075157L275.34108547222223,286.8038836421282z"/><path class="land" d="M294.05647805555554,464.64617838004096L293.6925357777778,464.6111082448753L294.03699627777775,464.64695834039617L294.05647805555554,464.64617838004096z"/><path class="land" d="M560.8476666388889,242.15058605671854L560.61698825,242.4330746263418L560.9536549166667,242.65612906335826L560.8531234444443,242.1555149342637L560.8476666388889,242.15058605671854z"/><path class="land" d="M299.45171849999997,466.89240178588267L298.9607462777778,466.7700242817755L299.43691077777777,466.89240178588267L299.45171849999997,466.89240178588267z"/><path class="land" d="M267.1137938055556,320.3450139749957L266.86207375000004,320.362770279968L267.1192506111111,320.3638810015094L267.1137938055556,320.3450139749957z"/><path class="land" d="M312.93942683333336,543.5928119877385L313.34545244444445,543.6928936354012L312.95735152777775,543.5901797285082L312.93942683333336,543.5928119877385z"/><path class="land" d="M624.5244268333333,342.4717456378674L624.5407916388889,342.79920259392446L624.5368947222222,342.48489212302445L624.5244268333333,342.4717456378674z"/><path class="land" d="M577.1611950555555,456.13874204438395L577.0770283888888,456.3431399402726L577.1666490555556,456.15278498796545L577.1611950555555,456.13874204438395z"/><path class="land" d="M282.44070091666663,284.3535443351556L282.23340122222226,284.5561472763653L282.4734305277778,284.3588089219936L282.44070091666663,284.3535443351556z"/><path class="land" d="M261.4551453611111,324.44229535616313L261.1254925833333,324.69833603228625L261.4426746666667,324.45755721504975L261.4551453611111,324.44229535616313z"/><path class="land" d="M249.57985152777778,322.5133809329187L249.33904227777776,322.4628037162959L249.49802188888887,322.81440731207834L249.5759546111111,322.54086160679947L249.57985152777778,322.5133809329187z"/><path class="land" d="M158.0618493611111,241.93514163339904L157.51710305555554,241.99272652668876L158.04080769444442,241.95489147241955L158.0618493611111,241.93514163339904z"/><path class="land" d="M298.4136629444444,466.3015735776954L298.5890101666667,466.32106089241023L298.3567718888889,466.1706321768931L298.40586911111114,466.29066125987606L298.4136629444444,466.3015735776954z"/><path class="land" d="M264.94961911111113,307.39541992886893L265.19432527777775,307.70834397410766L265.10392466666667,307.2599938401759L264.94961911111113,307.39541992886893z"/><path class="land" d="M538.2699583055555,458.198603002346L537.9309546111111,457.9997570568285L538.2543734444445,458.1947038677226L538.2699583055555,458.198603002346z"/><path class="land" d="M194.24338516666668,228.60309365732203L194.382883,227.88415869267436L194.23481138888891,228.58006225647335L194.24338516666668,228.60309365732203z"/><path class="land" d="M822.1134706666667,213.37115575232338L821.7908317777777,212.68253894932968L822.0604765277777,213.3383352539278L822.1134706666667,213.37115575232338z"/><path class="land" d="M220.45974194444443,314.07459098851325L220.09034566666668,314.2046968050683L220.44883394444443,314.0928540772539L220.45974194444443,314.07459098851325z"/><path class="land" d="M707.7987697222221,370.4027177118649L707.9756768333333,370.4283113861554L707.6569348611112,370.2637481430654L707.8034465833334,370.4018029075415L707.7987697222221,370.4027177118649z"/><path class="land" d="M171.18015861111112,271.1759088149062L171.07495027777776,271.6553650768452L171.19418638888888,271.1885784233032L171.18015861111112,271.1759088149062z"/><path class="land" d="M566.3668200555555,463.7678782326415L566.45877775,463.5177152326158L566.3551293055556,463.76008439617254L566.3668200555555,463.7678782326415z"/><path class="land" d="M512.4907996666666,255.65915591907708L512.1252975,255.76301062373463L512.32090925,255.99037236830213L512.4892425833334,255.6927614770777L512.4907996666666,255.65915591907708z"/><path class="land" d="M220.7893947222222,313.6071786292806L220.6265181944445,313.8827163695124L220.79718855555552,313.63120068001865L220.7893947222222,313.6071786292806z"/><path class="land" d="M836.2308691111111,231.20779308958063L837.0101907222222,231.1606438619207L836.2441169444444,231.1885828449358L836.2308691111111,231.20779308958063z"/><path class="land" d="M191.3840555277778,231.94659396777251L191.52745027777777,231.3718450841484L191.38093855555553,231.94485369251038L191.3840555277778,231.94659396777251z"/><path class="land" d="M200.49432005555556,228.1223470744677L200.0688098611111,228.3336111089188L200.51536172222222,228.1489925136868L200.49432005555556,228.1223470744677z"/><path class="land" d="M622.559758,320.09403081782875L622.6556154166666,320.39717214358967L622.5839166388888,320.1018110189928L622.559758,320.09403081782875z"/><path class="land" d="M602.3605379444444,350.05354817273223L602.5592638611112,349.98872684535485L602.3465101666667,350.04863754088024L602.3605379444444,350.05354817273223z"/><path class="land" d="M572.9287002777778,240.14753448135926L572.9294802222222,240.72989371511375L572.9333771388889,240.1525238000263L572.9287002777778,240.14753448135926z"/><path class="land" d="M726.60690275,388.6576637054011L726.7347126388888,388.41521323491895L726.5983317777778,388.6438151083334L726.60690275,388.6576637054011z"/><path class="land" d="M611.6780993611111,317.8370856928071L611.5744509166666,318.1343206934408L611.6960240555555,317.8471869699771L611.6780993611111,317.8370856928071z"/><path class="land" d="M298.0208851666667,466.15737987827913L297.9234706666667,465.89160227879023L298.0068573888889,466.15192520014676L298.0208851666667,466.15737987827913z"/><path class="land" d="M578.9060935,430.00856645030666L579.0448113888889,429.86440057175696L578.9068734444445,429.9926394937794L578.9060935,430.00856645030666z"/><path class="land" d="M260.39916511111113,272.3002627228209L260.41864688888893,272.31705568801203L260.81343905555553,272.4232564615004L260.39916511111113,272.3002627228209z"/><path class="land" d="M176.23483547222224,265.7475981191624L175.81711911111108,266.0312336634143L176.23717249999999,265.7533953922318L176.23483547222224,265.7475981191624z"/><path class="land" d="M726.1587938055555,392.3288393357541L726.1587938055555,391.91629196896133L726.1541169444445,392.31083814635747L726.1587938055555,392.3288393357541z"/><path class="land" d="M551.7358478333333,243.1488315194428L552.1597981388888,243.23544792873503L552.1044641666666,242.92965390638395L551.7303910277778,243.11940484638103L551.7358478333333,243.1488315194428z"/><path class="land" d="M319.85356138888886,450.66752596708307L319.85668116666665,450.92317727836087L319.8707089444444,450.6690909218602L319.85356138888886,450.66752596708307z"/><path class="land" d="M720.7265368611111,215.58689471417028L720.9381234444444,215.09245582407235L720.6926373333333,215.5735527054996L720.7265368611111,215.58689471417028z"/><path class="land" d="M832.8041944166666,229.2944469213235L832.3015342499998,228.8509448544312L832.7722419444444,229.2997390070659L832.8041944166666,229.2944469213235z"/><path class="land" d="M287.9543947222222,280.57698288897257L287.9559546111111,280.58100598882766L288.12662497222226,280.921469859686L287.9543947222222,280.57698288897257z"/><path class="land" d="M181.5529231388889,251.4005602816284L181.3035401111111,251.2488857886654L181.27002775,251.56148866435026L181.5529231388889,251.4005602816284z"/><path class="land" d="M263.0878215833333,249.14548710786514L262.72777622222225,249.4569171846893L263.0761308333333,249.1755477843991L263.0878215833333,249.14548710786514z"/><path class="land" d="M201.6859012222222,266.0052033436572L201.31026819444443,266.28556603983003L201.67966727777775,266.01821894737907L201.6859012222222,266.0052033436572z"/><path class="land" d="M623.3936308333333,315.3506283138004L623.1567184999999,315.43687243017416L623.3834999722222,315.3710576994174L623.3936308333333,315.3506283138004z"/><path class="land" d="M622.8964246666667,320.26508531950446L622.9003215833333,320.28507013707707L623.1138552222222,320.60569642322844L622.8964246666667,320.26508531950446z"/><path class="land" d="M281.61773608333334,296.24544205447916L281.56006788888885,296.5282748221228L281.6247499722222,296.26654294563775L281.61773608333334,296.24544205447916z"/><path class="land" d="M226.5205218888889,300.99592855592454L226.60624844444445,301.3147948649414L226.5423435,301.00927674490066L226.5205218888889,300.99592855592454z"/><path class="land" d="M806.5761468888888,370.0972652845972L806.6626533888889,369.82356562479544L806.58082375,370.0771354067134L806.5761468888888,370.0972652845972z"/><path class="land" d="M178.55487561111113,256.55528545217436L178.93751972222222,256.3103438303353L178.57202036111113,256.54160145014924L178.55487561111113,256.55528545217436z"/><path class="land" d="M569.0289780555555,464.0951918490957L569.0375518333334,463.90036229858265L568.8637645,464.016481697631L569.0227441111111,464.08194395942917L569.0289780555555,464.0951918490957z"/><path class="land" d="M42.6568814722222,179.37505270046682L42.26644072222226,179.39385979352824L42.72156355555558,180.02482076533425L42.65376449999993,179.42674818136118L42.6568814722222,179.37505270046682z"/><path class="land" d="M269.41980616666666,317.5192237539553L269.49383916666665,317.3179398299543L269.2195203611111,317.6551845279745L269.40733547222226,317.54170419768707L269.41980616666666,317.5192237539553z"/><path class="land" d="M187.8950357777778,265.66938026634733L187.628508,266.00809288434965L187.91062344444444,265.6795243250908L187.8950357777778,265.66938026634733z"/><path class="land" d="M554.4969802222222,239.65164774437807L554.2288953611111,239.3497893060124L554.4642506111111,239.6333144659057L554.4969802222222,239.65164774437807z"/><path class="land" d="M513.0347660277778,268.0793638204244L513.0230752777778,268.10654496015405L512.8843573888888,268.59084855647353L513.0347660277778,268.0793638204244z"/><path class="land" d="M158.04002774999998,242.43471703005395L157.62231138888885,242.38055127581077L158.0291169444444,242.44455932704452L158.04002774999998,242.43471703005395z"/><path class="land" d="M814.5774370277778,422.82787943570094L814.5766570833334,422.82224595983536L814.6039326944444,423.1118214079935L814.5774370277778,422.82787943570094z"/><path class="land" d="M556.4982783888888,241.89728871338153L555.9893814722221,242.07003064272354L556.4242425833334,242.30502211728788L556.5091863888889,241.9252718368074L556.4982783888888,241.89728871338153z"/><path class="land" d="M514.9916410277777,232.89525051713642L515.3688339444444,233.12170368197047L515.0251533888888,232.90216862118726L514.9916410277777,232.89525051713642z"/><path class="land" d="M561.4391731388889,243.88133468910766L561.0915956666666,244.0180464961894L561.427482388889,243.8959874755444L561.4391731388889,243.88133468910766z"/><path class="land" d="M602.1797367222222,350.24203472684593L602.2381848611111,350.5460746319816L602.1914246666666,350.24890243838934L602.1797367222222,350.24203472684593z"/><path class="land" d="M310.6341944166667,543.1454354108126L310.6521191111111,543.1471869687103L310.88591727777776,543.1533253802447L310.6341944166667,543.1454354108126z"/><path class="land" d="M554.6427148055556,242.95911113294457L554.3528055277777,243.1455595074003L554.6427148055556,242.99019514236608L554.6427148055556,242.95911113294457z"/><path class="land" d="M288.85451233333333,288.55422327033114L288.8537323888889,288.5812893473885L288.87945091666666,289.06531816674794L288.85451233333333,288.55422327033114z"/><path class="land" d="M545.5558317777778,243.61412013038992L545.6649370277778,243.9285476296669L545.5940181944445,243.62879432224966L545.5558317777778,243.61412013038992z"/><path class="land" d="M566.4805993611111,459.60900595110274L566.6520496666666,459.5708047271848L566.2226453611111,459.5341664740589L566.4618947222222,459.6097833318639L566.4805993611111,459.60900595110274z"/><path class="land" d="M553.6911629444444,239.59664836396473L553.4799663333333,239.25295614964148L553.6662243611111,239.58164619111764L553.6911629444444,239.59664836396473z"/><path class="land" d="M287.49927188888887,443.09618446507096L287.1781928888889,443.1739645601995L287.4969348611111,443.1118992573273L287.49927188888887,443.09618446507096z"/><path class="land" d="M280.83919441666666,300.60608905135757L280.8267265277778,300.6279685783508L280.74022283333335,301.07963334352564L280.83919441666666,300.60608905135757z"/><path class="land" d="M623.4294802222222,316.35171555680165L623.4707836111111,316.6498120579576L623.4435080000001,316.36527666950496L623.4294802222222,316.35171555680165z"/><path class="land" d="M813.9781394999999,423.86251285998316L813.8698113888889,424.0183310110747L813.9796965833334,423.8665295638435L813.9781394999999,423.86251285998316z"/><path class="land" d="M611.9703456666666,317.35618488418413L611.9095576944444,317.67989540422786L611.9820336111111,317.37193213160583L611.9703456666666,317.35618488418413z"/><path class="land" d="M566.8266169444445,215.7412426192991L566.3761709722222,215.96395112964717L566.8445416388889,215.74886732983848L566.8266169444445,215.7412426192991z"/><path class="land" d="M276.66281355555554,302.94758754716764L276.5856607777778,303.36191935356726L276.66281355555554,302.9716307430328L276.66281355555554,302.94758754716764z"/><path class="land" d="M564.7380379444444,203.94416928783204L564.3717558333333,203.984910228994L564.8144107777778,204.3389874208271L564.7629765277778,203.96046680915936L564.7380379444444,203.94416928783204z"/><path class="land" d="M644.8763953611111,326.68791457065294L645.0042024444444,326.46217168865326L644.8678215833334,326.6706421366795L644.8763953611111,326.68791457065294z"/><path class="land" d="M268.97715122222223,322.3187091158817L268.77608547222223,322.8517315595411L268.9841651111111,322.34071588197327L268.97715122222223,322.3187091158817z"/><path class="land" d="M524.7136709722222,464.65942929253833L524.4790956666667,464.866731438818L524.7043200555555,464.66878040653575L524.7136709722222,464.65942929253833z"/><path class="land" d="M682.3025064722223,316.70396663585404L682.09832375,316.71750220410456L682.2713339444445,316.9396187817001L682.3048435000001,316.7005836303431L682.3025064722223,316.70396663585404z"/><path class="land" d="M553.2079845555555,245.31338375127552L552.7357141666666,245.35699657480606L553.1986308333334,245.33599974781663L553.2079845555555,245.31338375127552z"/><path class="land" d="M622.3563552222222,319.89838151803065L622.3041410277777,320.2217801416738L622.3610320833333,319.91839885818905L622.3563552222222,319.89838151803065z"/><path class="land" d="M832.2836095555556,229.11258501440443L832.2703617222221,229.08255250867578L831.7739326944445,228.5552544225208L832.2836095555556,229.11258501440443z"/><path class="land" d="M203.77837713888889,295.35471450557066L203.4915876388889,295.58024453344933L203.76746633333335,295.3771543132527L203.77837713888889,295.35471450557066z"/><path class="land" d="M195.29624844444444,286.40430458772346L195.10531355555554,286.61135077247945L195.29468855555555,286.4082115934822L195.29624844444444,286.40430458772346z"/><path class="land" d="M826.5735240555555,184.76951932479028L827.2772499722223,184.11930998080186L826.5852148055556,184.75130340888143L826.5735240555555,184.76951932479028z"/><path class="land" d="M286.21807005555553,444.84315521230076L286.20949627777776,444.86198747455967L286.3263953611111,444.63913336813454L286.21807005555553,444.84315521230076z"/><path class="land" d="M716.6651052222221,210.28821082978175L717.1475064722222,209.92632208057364L716.6721191111111,210.23712119496926L716.6651052222221,210.28821082978175z"/><path class="land" d="M622.1997126388889,319.91728594076073L622.1412645,320.2262217733512L622.2082836111111,319.9295197239944L622.1997126388889,319.91728594076073z"/><path class="land" d="M644.4321805277777,326.50647045593416L644.497645361111,326.11718593703665L644.4236095555556,326.49890898881193L644.4321805277777,326.50647045593416z"/><path class="land" d="M212.68757591666665,296.05791047570233L212.47871633333332,296.02311714258224L212.68056202777777,296.0641232732057L212.68757591666665,296.05791047570233z"/><path class="land" d="M273.17457375000004,410.80325784057476L273.1901586111111,410.8048997303626L273.47461108333334,410.82380030918466L273.17457375000004,410.80325784057476z"/><path class="land" d="M520.8225197222222,468.96537491376887L520.5341731388888,469.22971910202045L520.8131688055556,468.9747310104258L520.8225197222222,468.96537491376887z"/><path class="land" d="M567.7555700555556,463.60421893389906L567.8405138611112,463.45225318136056L567.7516731388888,463.5925309893482L567.7555700555556,463.60421893389906z"/><path class="land" d="M615.736804,339.2615577007339L615.7360240555555,339.2840930652662L615.8513632500001,339.51138612800094L615.736804,339.2615577007339z"/><path class="land" d="M284.49031355555553,292.80561666164886L284.6602067777778,293.0932246277425L284.5051212777778,292.822025567698L284.49031355555553,292.80561666164886z"/><path class="land" d="M265.31044441666666,272.3744269565915L265.07820894444444,272.46674242304255L265.5777521388889,272.4066036405115L265.3447367222222,272.3800226289277L265.31044441666666,272.3744269565915z"/><path class="land" d="M264.6277601666667,307.2293644236894L264.6223061666667,307.2588148879662L264.6137323888889,307.52605912886827L264.6277601666667,307.2293644236894z"/><path class="land" d="M230.48960305555556,306.8956816835012L230.2277521388889,306.98180190753556L230.5012938055555,306.9133782949117L230.48960305555556,306.8956816835012z"/><path class="land" d="M567.2373194166667,266.50638636278916L567.1710774444444,266.88393253714446L567.2412163333333,266.52081133300385L567.2373194166667,266.50638636278916z"/><path class="land" d="M161.8813018333333,351.72070903014645L161.7199823888889,351.86607807390106L161.8781848611111,351.7441306311115L161.8813018333333,351.72070903014645z"/><path class="land" d="M313.30181202777777,543.5735018410373L313.5730138611111,543.621780789544L313.3173968888889,543.5726234143171L313.30181202777777,543.5735018410373z"/><path class="land" d="M725.8977228333333,391.3280085738242L725.9249984444446,390.8816849468485L725.8899289999999,391.3288687287172L725.8977228333333,391.3280085738242z"/><path class="land" d="M532.1943734444444,458.0699382841947L532.4827228333334,458.0535636952979L532.1826826944445,458.06213979867846L532.1943734444444,458.0699382841947z"/><path class="land" d="M807.8433237499999,376.85591598651814L808.0716651111112,376.87293315982123L807.8433237499999,376.85412329588684L807.8433237499999,376.85591598651814z"/><path class="land" d="M703.8857996666666,317.06129251581274L703.9832141666667,317.3055626424624L703.8842425833333,317.05340601778926L703.8857996666666,317.06129251581274z"/><path class="land" d="M186.60759719444445,266.0066507226627L186.29898608333332,266.27401400682436L186.60837713888887,266.0326808450001L186.60759719444445,266.0066507226627z"/><path class="land" d="M556.9339166388888,232.5662996647727L557.0445817777778,232.248902033205L556.9307996666666,232.5420367931419L556.9339166388888,232.5662996647727z"/><path class="land" d="M563.6142558333333,469.493297990715L563.6189326944444,469.50889328421283L563.7311549166667,469.6453678176952L563.6142558333333,469.493297990715z"/><path class="land" d="M553.9358691111111,244.4681578925817L553.9124904166666,244.47140050746907L553.2968252777778,244.60280958198985L553.9358691111111,244.4681578925817z"/><path class="land" d="M192.3691169444444,287.32073087935765L192.23195894444441,287.51258562462675L192.37535369444439,287.3233221443709L192.3691169444444,287.32073087935765z"/><path class="land" d="M526.5809224999999,460.52882816409556L526.7780913333334,460.3464313091742L526.5848194166666,460.5140204971469L526.5809224999999,460.52882816409556z"/><path class="land" d="M300.10011325,467.0155613049582L299.8709919444444,466.9477446147442L300.08764536111113,467.01322094987626L300.10011325,467.0155613049582z"/><path class="land" d="M232.86185738888884,321.7314884406193L232.76911694444445,321.92225474568033L232.8751052222222,321.7447284818629L232.86185738888884,321.7314884406193z"/><path class="land" d="M571.8836308333333,497.6389198629277L571.8742799166666,497.8118538590871L571.900778388889,497.64051481629684L571.8836308333333,497.6389198629277z"/><path class="land" d="M170.34394874999998,271.01676346133195L170.34005183333335,271.0153533871533L170.50526819444443,271.3883644652826L170.34394874999998,271.01676346133195z"/><path class="land" d="M538.9877148055556,458.37482431260787L538.9799209722222,458.3639076863676L538.7133931944444,458.2305707333575L538.9877148055556,458.37482431260787z"/><path class="land" d="M665.4185160277779,243.00819400192236L665.1067879444444,242.70529335366186L665.4005913333334,242.99346993585877L665.4185160277779,243.00819400192236z"/><path class="land" d="M227.4073888611111,305.67798515584343L227.5001293055555,305.92706156314614L227.43622436111113,305.68273165888013L227.4073888611111,305.67798515584343z"/><path class="land" d="M159.3789033888889,336.6198654258401L159.14900213888887,336.6126187183602L159.4318947222222,336.8010042332261L159.38669441666667,336.63850308871014L159.3789033888889,336.6198654258401z"/><path class="land" d="M280.44018269444445,509.13537331664287L280.28432005555555,509.0421433836586L280.44329966666663,509.15159026261847L280.44018269444445,509.13537331664287z"/><path class="land" d="M196.1698675833333,268.82328011822835L195.95633394444448,269.0155710366993L196.17376449999998,268.82470121329754L196.1698675833333,268.82328011822835z"/><path class="land" d="M291.24235152777777,441.467178572505L291.0568734444444,441.53090222426243L291.2587163333334,441.47111254603055L291.24235152777777,441.467178572505z"/><path class="land" d="M288.0260935,283.7682475322381L288.0159626388889,283.7827709511877L287.997258,284.33116236675585L288.0260935,283.7682475322381z"/><path class="land" d="M805.4897740555556,371.28627252415674L805.6596672777778,371.2944755542967L805.4952280555556,371.2662201233338L805.4897740555556,371.28627252415674z"/><path class="land" d="M303.1971351666666,470.54465582845586L303.12855616666667,470.2591694646102L303.18856138888884,470.5337349130105L303.1971351666666,470.54465582845586z"/><path class="land" d="M261.02651819444446,324.6721990406477L260.78103208333334,324.8246158222306L261.0389860833333,324.68635580282205L261.02651819444446,324.6721990406477z"/><path class="land" d="M286.51343052777776,443.58792671146904L286.49940274999994,443.59735312327683L286.3217185,443.7473494095463L286.51343052777776,443.58792671146904z"/><path class="land" d="M668.4259172777777,299.88887789130195L668.4235774444444,299.89009423971424L668.7127067777778,299.94741705791205L668.4259172777777,299.88887789130195z"/><path class="land" d="M320.31336108333335,449.96529840221484L320.37414905555556,450.11546132557174L320.32816880555555,449.9692093824939L320.31336108333335,449.96529840221484z"/><path class="land" d="M287.77671047222225,442.76301357582827L287.64110955555554,442.9924721193594L287.77047652777776,442.7803027240494L287.77671047222225,442.76301357582827z"/><path class="land" d="M243.7676746666666,317.69899179057563L243.8370336111111,317.98407080570576L243.78793638888888,317.71246704202105L243.7676746666666,317.69899179057563z"/><path class="land" d="M514.8100598611111,262.39907566299223L514.7890181944445,262.41528519018175L514.47261325,262.85985083691844L514.8100598611111,262.39907566299223z"/><path class="land" d="M609.9986629444444,318.9231650779916L610.1529684999999,319.2981482019909L610.0103536944443,318.93880238803985L609.9986629444444,318.9231650779916z"/><path class="land" d="M557.0383478333333,238.38415338093387L557.2433076944444,238.7144176073132L557.0710774444444,238.4042862608063L557.0383478333333,238.38415338093387z"/><path class="land" d="M316.7838178888889,543.2094344911136L317.1220416388889,543.2576632416269L316.7970657222222,543.20154325993L316.7838178888889,543.2094344911136z"/><path class="land" d="M237.39204966666665,314.214964933382L237.26268269444446,314.36664741917L237.57332502777774,314.27917094494825L237.4029604722222,314.23093297480705L237.39204966666665,314.214964933382z"/><path class="land" d="M268.5921672777778,273.0434257345963L268.89610152777783,273.1005823032989L268.62333980555553,273.04203537895194L268.5921672777778,273.0434257345963z"/><path class="land" d="M808.1776533888889,376.7699234448643L808.1768734444445,376.7717165984967L808.4067718888888,376.65523464069827L808.1776533888889,376.7699234448643z"/><path class="land" d="M645.1491570833332,325.3355648682798L645.2091651111112,324.93233509162604L645.1507141666666,325.3138437353471L645.1491570833332,325.3355648682798z"/><path class="land" d="M267.65386325000003,297.5731378344117L267.3912323888889,297.89234838004694L267.64061541666666,297.59163967358165L267.65386325000003,297.5731378344117z"/><path class="land" d="M836.0095416388889,231.1134822546322L836.4490796111112,230.84249700327607L836.0305833055555,231.09426192020126L836.0095416388889,231.1134822546322z"/><path class="land" d="M531.3947901111111,458.1229637102981L531.6582009166667,458.10269009666825L531.4095978333334,458.1190645133674L531.3947901111111,458.1229637102981z"/><path class="land" d="M319.70704966666665,450.8457822375073L319.8262857777778,450.99587809682305L319.72263733333335,450.8496914613707L319.70704966666665,450.8457822375073z"/><path class="land" d="M553.8392345555555,245.4102831909446L553.6155700555555,245.69746562442472L553.8376746666667,245.4345029652437L553.8392345555555,245.4102831909446z"/><path class="land" d="M335.09318486111107,471.8881483660554L335.09552188888887,472.07465844939844L335.09941880555556,471.8982926485962L335.09318486111107,471.8881483660554z"/><path class="land" d="M274.55942683333336,300.65713480977L274.36303794444444,300.9437506509334L274.55552991666667,300.683869142432L274.55942683333336,300.65713480977z"/><path class="land" d="M622.7779684999999,320.4249143417231L622.9431848611111,320.61345502080377L622.8044641666667,320.42935197832526L622.7779684999999,320.4249143417231z"/><path class="land" d="M325.6727521388888,468.38917070350396L325.4561015277778,468.5295120650548L325.6844428888889,468.3969679732142L325.6727521388888,468.38917070350396z"/><path class="land" d="M726.6201533888889,388.46631447199655L726.7923808333334,388.23673822645895L726.6092425833333,388.47670908469945L726.6201533888889,388.46631447199655z"/><path class="land" d="M558.7505138611111,241.18816883174568L558.8619589444445,241.61067542434768L558.7661015277778,241.21295411842593L558.7505138611111,241.18816883174568z"/><path class="land" d="M97.88657961111112,202.77274905915027L97.88657961111112,202.253001403572L97.88034566666671,202.7337690598033L97.88657961111112,202.77274905915027z"/><path class="land" d="M642.6529925833333,315.8019027657026L642.6093493611112,316.1912133676624L642.6553296111111,315.82229053872743L642.6529925833333,315.8019027657026z"/><path class="land" d="M203.69265338888886,411.4462955286898L203.69888733333335,411.45532185649125L203.8539728333333,411.6186192586747L203.69265338888886,411.4462955286898z"/><path class="land" d="M555.1149823888888,239.07083429678588L555.1056314722223,239.0491019820636L554.90690275,238.66751760806872L555.1149823888888,239.07083429678588z"/><path class="land" d="M299.6543413333333,467.0794807792066L299.4392506111111,466.9765863483449L299.6356395,467.0794807792066L299.6543413333333,467.0794807792066z"/><path class="land" d="M259.50450430555554,312.0987366692763L259.51697219444446,312.3669741283361L259.5309999722222,312.09988953287086L259.50450430555554,312.0987366692763z"/><path class="land" d="M720.1533478333333,223.98199612069246L720.0668413333333,224.90318291905191L720.1572419444444,224.03471501287396L720.1533478333333,223.98199612069246z"/><path class="land" d="M196.5478376388889,229.90753581282803L196.80813147222224,229.71396776476956L196.54082374999996,229.88994619918174L196.5478376388889,229.90753581282803z"/><path class="land" d="M558.2634385555556,494.85409114365274L558.0452280555555,494.98353669612135L558.2618814722222,494.86758996283197L558.2634385555556,494.85409114365274z"/><path class="land" d="M235.92380986111107,432.0082475891454L235.92302991666665,432.0082475891454L235.85445091666665,432.15123427714207L235.92380986111107,432.0082475891454z"/><path class="land" d="M516.8121351666666,262.71864872211916L517.0108610833333,263.0112352647455L516.8308398055556,262.7363034163652L516.8121351666666,262.71864872211916z"/><path class="land" d="M729.5418252777778,378.73403457491446L729.5433851666667,378.7269077606109L729.3906395,378.610228107234L729.5418252777778,378.73403457491446z"/><path class="land" d="M626.8826533888889,337.256880733323L626.846804,337.5108134025148L626.8857703611111,337.2765034320978L626.8826533888889,337.256880733323z"/><path class="land" d="M644.7306607777778,324.6166534666067L644.8631447222222,324.2896249299813L644.7283237500001,324.59704502151294L644.7306607777778,324.6166534666067z"/><path class="land" d="M608.7782462777777,319.4976606116886L608.6683610833334,319.69032007697564L608.7837002777778,319.51771361048134L608.7782462777777,319.4976606116886z"/><path class="land" d="M277.54812344444446,283.67317282007957L277.21925061111114,283.8857066908887L277.5707221944445,283.6612852884147L277.54812344444446,283.67317282007957z"/><path class="land" d="M263.50787497222217,307.4919346983115L263.2881073888889,307.7306791504419L263.50865491666667,307.5166432597862L263.50787497222217,307.4919346983115z"/><path class="land" d="M170.86219658333331,271.2406519158675L170.74529750000002,271.60761051287676L170.86609350000003,271.26457861605707L170.86219658333331,271.2406519158675z"/><path class="land" d="M505.2088259166666,247.66176361372646L505.3678055277777,247.8897034651552L505.2337645,247.65697478284838L505.2088259166666,247.66176361372646z"/><path class="land" d="M561.2864246666667,214.08592926147767L560.9778135555555,214.29537268504615L561.2801907222222,214.09169493996342L561.2864246666667,214.08592926147767z"/><path class="land" d="M611.2003749722222,317.57654117315826L611.2837645,317.86177644839046L611.2128456666666,317.5922728704886L611.2003749722222,317.57654117315826z"/><path class="land" d="M616.3134999722222,339.7527814406225L616.4857302222223,339.87441567674216L616.3322046111111,339.760963152364L616.3134999722222,339.7527814406225z"/><path class="land" d="M615.610554,322.18663571992L615.4570283888888,322.4441104997127L615.6066570833334,322.21305415255154L615.610554,322.18663571992z"/><path class="land" d="M581.1287163333333,445.5867990689254L581.0367558333334,445.73265941872717L581.1341731388889,445.6001331131922L581.1287163333333,445.5867990689254z"/><path class="land" d="M228.95745830555555,306.34035418130975L229.06656355555552,306.529561258445L228.9855138611111,306.34508597459245L228.95745830555555,306.34035418130975z"/><path class="land" d="M29.37179597222223,226.90854401290954L29.19878577777779,227.2462429752696L29.381146888888892,226.94788502020802L29.37179597222223,226.90854401290954z"/><path class="land" d="M770.5356688055556,429.461234307997L770.4055218888888,429.6046778386348L770.5380058333333,429.4707970862381L770.5356688055556,429.461234307997z"/><path class="land" d="M613.1369882500001,315.855135372125L613.1369882500001,316.1199666490726L613.1432221944444,315.87098933431594L613.1369882500001,315.855135372125z"/><path class="land" d="M314.6149663333333,543.9757312474907L314.82616294444443,544.202520879588L314.62509719444444,543.9783695829449L314.6149663333333,543.9757312474907z"/><path class="land" d="M234.57636324999996,318.619144839696L234.69637930555552,318.7868543867369L234.59662497222217,318.6303301859723L234.57636324999996,318.619144839696z"/><path class="land" d="M270.4905913333333,473.07608132841295L270.3744721944445,472.9948925527036L270.4726666388889,473.07764391763806L270.4905913333333,473.07608132841295z"/><path class="land" d="M805.0415304444444,371.5674077557933L805.1686950555555,371.71163192497085L805.0573116944444,371.5592119365244L805.0415304444444,371.5674077557933z"/><path class="land" d="M181.2349583055555,189.2863948318619L180.84841727777774,189.3728751497892L181.2061256111111,189.31523176647943L181.2349583055555,189.2863948318619z"/><path class="land" d="M668.2193947222222,299.94741705791205L668.130554,299.7107139659566L668.2116036944444,299.95107383960215L668.2193947222222,299.94741705791205z"/><path class="land" d="M201.76695091666667,291.38182187262055L201.55107744444445,291.51143720469554L201.76539102777775,291.3856337863702L201.76695091666667,291.38182187262055z"/><path class="land" d="M546.3406073888889,242.09469641296388L546.0132916388889,242.0749616955766L546.3367104722222,242.12757300552659L546.3406073888889,242.09469641296388z"/><path class="land" d="M137.42698825,217.88428426282348L137.23839319444443,217.5603345066517L137.40594658333336,217.86358141024033L137.42698825,217.88428426282348z"/><path class="land" d="M524.6926293055556,461.37918652082465L524.6583398055556,461.65275164880916L524.6965262222222,461.3939956720892L524.6926293055556,461.37918652082465z"/><path class="land" d="M809.8033157222221,368.0628996727903L809.9724289999999,368.12092477585435L809.810329611111,368.05000332067095L809.8033157222221,368.0628996727903z"/><path class="land" d="M561.1438098611111,242.10620241420366L561.1687484444444,242.44784391317594L561.1484867222222,242.1111324901259L561.1438098611111,242.10620241420366z"/><path class="land" d="M611.7287564722221,317.7158347170996L611.8924129444445,317.89544456833664L611.7529151111111,317.7214500911428L611.7287564722221,317.7158347170996z"/><path class="land" d="M312.28713516666664,543.2848488966576L312.3034999722222,543.2909897180318L312.4866410277778,543.3576490230663L312.28713516666664,543.2848488966576z"/><path class="land" d="M225.81523608333333,307.93393334683617L225.77704966666667,308.1346471744754L225.83705769444447,307.9433267083567L225.81523608333333,307.93393334683617z"/><path class="land" d="M536.2982783888889,457.55759015601524L536.2826907222222,457.55759015601524L535.9483610833333,457.5942453834851L536.2982783888889,457.55759015601524z"/><path class="land" d="M726.2702360833333,392.6630128866763L726.31465925,392.4531181485357L726.2616651111111,392.64931020631883L726.2702360833333,392.6630128866763z"/><path class="land" d="M608.6660240555556,319.9662130870607L608.6325145,320.1873475337756L608.672258,319.9862244034599L608.6660240555556,319.9662130870607z"/><path class="land" d="M643.4151666388889,316.5166217005195L643.31073825,316.7389348808309L643.4315342499999,316.5222673931825L643.4151666388889,316.5166217005195z"/><path class="land" d="M226.32023608333333,300.4857107775022L226.31867899999997,300.5161139173457L226.31244505555551,300.7774146391093L226.32023608333333,300.4857107775022z"/><path class="land" d="M557.3578669444444,488.58378955537904L557.2526586111111,488.73129270762007L557.3578669444444,488.5987763121796L557.3578669444444,488.58378955537904z"/><path class="land" d="M279.1231314722222,319.43080704197143L279.23379380555554,319.61572699956605L279.13715925,319.448635533999L279.1231314722222,319.43080704197143z"/><path class="land" d="M234.08305399999998,318.93321747233836L234.08071416666667,319.12412747630117L234.10565275,318.9298640436402L234.08305399999998,318.93321747233836z"/><path class="land" d="M292.71137127777774,285.8119235179762L292.9560774444444,285.9960887033791L292.7378669444444,285.82499139310494L292.71137127777774,285.8119235179762z"/><path class="land" d="M265.4374743611111,271.73398650393733L265.6143814722222,271.9374197431481L265.4647499722222,271.74381509197485L265.4374743611111,271.73398650393733z"/><path class="land" d="M820.9195496666666,209.41762423208402L820.8470737499999,208.86783591312934L820.9063018333334,209.40182864500468L820.9195496666666,209.41762423208402z"/><path class="land" d="M524.3060854722222,464.8901136555562L524.1704845555556,465.0506588286882L524.2982916388888,464.90180196832864L524.3060854722222,464.8901136555562z"/><path class="land" d="M191.81034566666665,231.58802336363146L191.94438949999997,231.28285426846648L191.80722869444446,231.56363441883676L191.81034566666665,231.58802336363146z"/><path class="land" d="M799.0619348611111,375.8148737530927L799.2201373333334,375.82071541115516L799.0619348611111,375.79645534208373L799.0619348611111,375.8148737530927z"/><path class="land" d="M865.1647206666667,295.1039673800022L864.8763712777778,295.175107951738L865.1740715833332,295.1226916769361L865.1647206666667,295.1039673800022z"/><path class="land" d="M551.8239086111112,194.1236274191911L551.8161175833333,194.08696685180172L551.7148061666667,193.75232940290908L551.8239086111112,194.1236274191911z"/><path class="land" d="M286.6615021388889,443.44655056883215L286.50018269444445,443.4669747231337L286.6731928888889,443.4473366630008L286.6615021388889,443.44655056883215z"/><path class="land" d="M529.7254845555556,458.4395432145846L529.9857783888889,458.38730163029345L529.733278388889,458.42784637971926L529.7254845555556,458.4395432145846z"/><path class="land" d="M645.7952148055556,320.2040087423378L645.7936549166666,320.1917938417869L645.7149450555555,320.0117922784217L645.7952148055556,320.2040087423378z"/><path class="land" d="M249.81598672222222,321.2312126085995L249.9562645,321.41245760274944L249.83624844444444,321.24226905884126L249.81598672222222,321.2312126085995z"/><path class="land" d="M565.2586256111111,464.682808487006L565.3840956666667,464.6415042296409L565.2430379444444,464.68748545082894L565.2586256111111,464.682808487006z"/><path class="land" d="M551.7568894999999,513.12049964375L551.8722286944444,513.0331349384719L551.7490956666667,513.1180509345262L551.7568894999999,513.12049964375z"/><path class="land" d="M312.36506788888886,543.4251990728311L312.5879524444444,543.5059231495071L312.3853296111111,543.4243210185812L312.36506788888886,543.4251990728311z"/><path class="land" d="M143.30618702777778,210.83748295405522L143.7324743611111,210.65327775053598L143.32800583333338,210.81789420863842L143.30618702777778,210.83748295405522z"/><path class="land" d="M553.0934225,244.09287162688173L553.0864086111111,243.78036269440804L553.0895283888889,244.07010174262075L553.0934225,244.09287162688173z"/><path class="land" d="M831.5814407222222,228.46662875877857L831.5783237499999,228.45067160505926L831.2821805277777,227.95529263418473L831.5814407222222,228.46662875877857z"/><path class="land" d="M552.3904765277778,237.41167047119583L552.3920336111111,237.3863613512802L552.0390021388889,236.9623653927263L552.3904765277778,237.41167047119583z"/><path class="land" d="M566.8164860833333,396.0248685099081L566.8305138611111,396.2065677048345L566.8242799166667,396.0384578885802L566.8164860833333,396.0248685099081z"/><path class="land" d="M644.7431314722221,326.28920182142804L644.8140475,326.09229621227234L644.7275438055556,326.27622533916576L644.7431314722221,326.28920182142804z"/><path class="land" d="M615.7617425833333,322.6518586744327L615.7383610833333,322.88026997824545L615.7640796111111,322.67382933878605L615.7617425833333,322.6518586744327z"/><path class="land" d="M828.1321672777777,182.58786817134018L828.1290474999998,182.55095804992538L827.9895496666667,182.0658352490005L828.1321672777777,182.58786817134018z"/><path class="land" d="M557.0500357777777,237.45215042712985L557.0492558333333,237.48419520176031L557.0991329999999,237.90192831994497L557.0500357777777,237.45215042712985z"/><path class="land" d="M541.4332221944444,250.70369940552445L541.1651373333333,250.84328590635536L541.4160774444445,250.71781923195658L541.4332221944444,250.70369940552445z"/><path class="land" d="M255.01483547222222,279.2767389342739L254.7163552222222,279.24972570647014L254.99379380555553,279.287541242841L255.01483547222222,279.2767389342739z"/><path class="land" d="M277.28393269444445,283.55955129557503L277.0953376388889,283.75108515066324L277.26834783333334,283.5833378013248L277.28393269444445,283.55955129557503z"/><path class="land" d="M824.3711629444444,189.2775240254815L824.5628749722222,188.77108079760393L824.3563552222222,189.2620010077526L824.3711629444444,189.2775240254815z"/><path class="land" d="M233.55934936111112,320.1351408429282L233.62715122222227,320.37497992600936L233.57337713888893,320.1506941418262L233.55934936111112,320.1351408429282z"/><path class="land" d="M803.9459385555556,372.9117149597837L804.1321965833333,372.88995167546415L803.9584092499999,372.90264683567665L803.9459385555556,372.9117149597837z"/><path class="land" d="M530.3364728333333,458.25864197579455L530.5546805277778,458.23291188124443L530.3458237499999,458.24928584889074L530.3364728333333,458.25864197579455z"/><path class="land" d="M604.3439086111111,293.464743903666L604.5800438055556,293.43328720392503L604.3439086111111,293.4370609946084L604.3439086111111,293.464743903666z"/><path class="land" d="M771.7030913333333,425.8797378056879L771.7405006111111,426.06071806749924L771.7077681944445,425.88614432408116L771.7030913333333,425.8797378056879z"/><path class="land" d="M771.4295496666666,422.3691243435926L771.4389033888888,422.53978504581227L771.4318895,422.3779790212317L771.4295496666666,422.3691243435926z"/><path class="land" d="M645.2598194166667,327.0406729726167L645.2574823888889,327.0201938877244L645.2169589444444,326.79368992817695L645.2598194166667,327.0406729726167z"/><path class="land" d="M703.5226373333333,316.413852334245L703.2249370277777,316.453383390278L703.5257543055554,316.41611330026365L703.5226373333333,316.413852334245z"/><path class="land" d="M552.4208691111111,242.52659131303233L552.6492104722222,242.26888971642046L552.4200891666667,242.4970642778534L552.4208691111111,242.52659131303233z"/><path class="land" d="M250.40827036111108,322.35611460044646L250.3950197222222,322.3770168533065L250.33267466666666,322.5738348339755L250.40827036111108,322.35611460044646z"/><path class="land" d="M563.8059706666666,468.55836109539445L563.6937484444444,468.7298951649829L563.8098675833334,468.57317582750926L563.8059706666666,468.55836109539445z"/><path class="land" d="M287.8039860833333,442.8203800340841L287.7034546111111,442.97911499222886L287.807883,442.83216873114765L287.8039860833333,442.8203800340841z"/><path class="land" d="M565.0404151111111,465.12158061316063L565.1035401111111,464.9976626671416L565.0310613888889,465.11222648526564L565.0404151111111,465.12158061316063z"/><path class="land" d="M769.8405138611112,433.1403547647466L769.9776746666668,433.2006486286105L769.8451907222222,433.1403547647466L769.8405138611112,433.1403547647466z"/><path class="land" d="M567.5202148055555,463.32756013403935L567.5591811666667,463.16468315918837L567.514758,463.31353233194767L567.5202148055555,463.32756013403935z"/><path class="land" d="M525.6815876388889,462.4032752379906L525.7462697222222,462.2676699890979L525.6823675833333,462.38379008768175L525.6815876388889,462.4032752379906z"/><path class="land" d="M836.5348061666666,230.98940696020597L836.9634305277777,230.95094395739838L836.572212638889,230.96668010405924L836.5348061666666,230.98940696020597z"/><path class="land" d="M554.544520361111,244.43082571217317L554.6333610833333,244.708195809665L554.5640021388889,244.44705904568636L554.544520361111,244.43082571217317z"/><path class="land" d="M295.93776016666664,440.69198793736905L295.77254380555553,440.6793901040755L295.9198354722222,440.70064620962773L295.93776016666664,440.69198793736905z"/><path class="land" d="M540.4902441111111,460.1016705153274L540.3523061666666,459.9138079750722L540.4808931944444,460.09153722074456L540.4902441111111,460.1016705153274z"/><path class="land" d="M298.5009465833333,440.0927218050271L298.33105616666666,440.1368296030056L298.48146480555556,440.1037496281962L298.5009465833333,440.0927218050271z"/><path class="land" d="M474.8916811666666,441.4372810755877L474.88544441666664,441.44672396341184L474.7981607777778,441.62923379834666L474.8916811666666,441.4372810755877z"/><path class="land" d="M552.8424823888889,193.48631538670548L553.16823825,193.32391412035167L552.806633,193.4581772143173L552.8424823888889,193.48631538670548z"/><path class="land" d="M567.2903135555556,463.41484387838545L567.40019875,463.34704474747497L567.2856395,463.4000389487937L567.2903135555556,463.41484387838545z"/><path class="land" d="M550.2551373333333,226.54869750675473L550.5855700555555,226.47341920200498L550.2216249722222,226.53615547766347L550.2551373333333,226.54869750675473z"/><path class="land" d="M565.19627775,464.83010384113373L565.3256447222223,464.7849023016392L565.1916036944444,464.8152957043043L565.19627775,464.83010384113373z"/><path class="land" d="M555.9340474999999,242.10291759583734L556.0813391666667,242.44128058953677L555.9535320833334,242.1209981606393L555.9340474999999,242.10291759583734z"/><path class="land" d="M301.33377774999997,439.3725424028106L301.1062163333333,439.3819998613322L301.3532623333333,439.37333123691826L301.33377774999997,439.3725424028106z"/><path class="land" d="M647.3639860833333,321.7954655612873L647.362429,321.5946585993888L647.3499583055554,321.78443603485135L647.3639860833333,321.7954655612873z"/><path class="land" d="M644.0830459722222,325.2725734245381L644.1329231388889,325.0813198763209L644.0775891666667,325.2541039873496L644.0830459722222,325.2725734245381z"/><path class="land" d="M270.1024904166666,473.1658614007603L270.20613886111107,473.0885736359445L270.0853456666666,473.1674212310092L270.1024904166666,473.1658614007603z"/><path class="land" d="M260.13107744444443,326.2015877030597L259.9479363888889,326.267573947458L260.1178296111111,326.21673368422853L260.13107744444443,326.2015877030597z"/><path class="land" d="M521.7639407222222,467.06466964189747L521.7522499722222,467.0716851447383L521.6298968888889,467.20731857243993L521.7639407222222,467.06466964189747z"/><path class="land" d="M309.2773968888889,544.059221807455L309.33195091666664,544.2201089824414L309.2867506111111,544.0477959991441L309.2773968888889,544.059221807455z"/><path class="land" d="M290.48407158333333,441.3680460116851L290.63058330555555,441.41603854835654L290.5019962777778,441.3664711523897L290.48407158333333,441.3680460116851z"/><path class="land" d="M610.5395123333333,318.8606049374265L610.5356154166666,318.8874191368308L610.623679,319.09399458195014L610.5395123333333,318.8606049374265z"/><path class="land" d="M242.83249041666664,317.323565228888L242.6555833055555,317.38205448554663L242.84573824999998,317.3381889818596L242.83249041666664,317.323565228888z"/><path class="land" d="M97.17116294444442,199.9624613538291L97.33871633333328,199.513661020467L97.16181202777776,199.93327155714564L97.17116294444442,199.9624613538291z"/><path class="land" d="M646.5371271388888,321.2290036419039L646.5457009166666,321.21241779337663L646.5659626388889,321.02105340476135L646.5371271388888,321.2290036419039z"/><path class="land" d="M526.2154231388889,460.79306370133236L526.2988098611111,460.6761457849099L526.2099663333333,460.77903374377047L526.2154231388889,460.79306370133236z"/><path class="land" d="M564.6359465833333,467.6742642066267L564.558013861111,467.8145881702971L564.6398435,467.68985685096084L564.6359465833333,467.6742642066267z"/><path class="land" d="M826.1254151111111,185.18799189951102L826.5618333055556,184.93566844890267L826.1067104722222,185.1493732868915L826.1254151111111,185.18799189951102z"/><path class="land" d="M523.6124904166667,465.75287136501015L523.5984626388888,465.75832584643297L523.4729925833333,465.86354395580463L523.6124904166667,465.75287136501015z"/><path class="land" d="M335.0261629444445,471.23272034261277L335.0261629444445,471.3942246028793L335.0331768333333,471.2444242260978L335.0261629444445,471.23272034261277z"/><path class="land" d="M524.2047740555555,465.25251089505724L524.1057996666666,465.4037080216417L524.1993200555555,465.2657622230151L524.2047740555555,465.25251089505724z"/><path class="land" d="M715.5592506111111,193.12232307963882L715.5522367222222,193.1353310377055L715.3909172777778,193.44735241763033L715.5592506111111,193.12232307963882z"/><path class="land" d="M527.1022901111111,459.9925383141407L527.2456848611112,459.94498871826477L527.1061870277778,459.9769494679875L527.1022901111111,459.9925383141407z"/><path class="land" d="M120.55546849999995,221.24484112330322L120.70977405555557,221.55475011235484L120.57729011111111,221.26330459867143L120.55546849999995,221.24484112330322z"/><path class="land" d="M299.29585305555554,439.61764622609087L299.1470043055555,439.6192206985491L299.2771512222222,439.63025328919446L299.29585305555554,439.61764622609087z"/><path class="land" d="M261.6585481388889,324.168508597837L261.4746271388889,324.3387084891633L261.65387127777774,324.195791173525L261.6585481388889,324.168508597837z"/><path class="land" d="M771.9633851666666,428.5417573269002L771.9953376388888,428.707713252668L771.9696191111112,428.5481402637676L771.9633851666666,428.5417573269002z"/><path class="land" d="M267.91961108333334,297.03838008049263L267.79102405555557,297.25838036406316L267.91571416666665,297.06805782558564L267.91961108333334,297.03838008049263z"/><path class="land" d="M624.8899289999999,342.48691627864275L624.7979685,342.64967658653825L624.8813552222222,342.5051183871641L624.8899289999999,342.48691627864275z"/><path class="land" d="M267.3187564722222,298.089295582751L267.15977405555554,298.3143260523021L267.31251972222225,298.11882333361234L267.3187564722222,298.089295582751z"/><path class="land" d="M115.96682527777777,217.78075927699837L116.36427991666663,218.17006883936816L116.01046849999994,217.7958195039341L115.96682527777777,217.78075927699837z"/><path class="land" d="M556.5629604722221,231.86484544557572L556.5536095555556,231.84222905460632L556.3782623333334,231.46602042129024L556.5629604722221,231.86484544557572z"/><path class="land" d="M554.9489860833334,490.0147701261705L554.8180620277777,490.08506872021053L554.9372981388889,490.02266929774925L554.9489860833334,490.0147701261705z"/><path class="land" d="M527.8675839444444,459.3844876540017L528.0024049166667,459.31977996663363L527.8714780555555,459.36889455653875L527.8675839444444,459.3844876540017z"/><path class="land" d="M771.89636325,424.83858764594606L771.8714246666667,425.01583148526674L771.9041570833333,424.84099301328695L771.89636325,424.83858764594606z"/><path class="land" d="M791.1159786944445,397.4939557475657L791.2009225,397.63439999637285L791.1323434999999,397.49903390572456L791.1159786944445,397.4939557475657z"/><path class="land" d="M527.5885854722222,459.6409654844851L527.6002762222222,459.633172065223L527.7327601666667,459.53650425631355L527.5885854722222,459.6409654844851z"/><path class="land" d="M857.1509626388888,303.855648866052L857.0356234444444,304.11643198666627L857.1673274444445,303.8700107105831L857.1509626388888,303.855648866052z"/></svg>